<svg xmlns="http://www.w3.org/2000/svg" xmlns:xlink="http://www.w3.org/1999/xlink" width="399" height="370" viewBox="0 0 399 370">
    <defs>
        <filter id="a" width="113.8%" height="114.8%" x="-6.9%" y="-7.4%" filterUnits="objectBoundingBox">
            <feOffset in="SourceAlpha" result="shadowOffsetOuter1"/>
            <feGaussianBlur in="shadowOffsetOuter1" result="shadowBlurOuter1" stdDeviation="7.5"/>
            <feColorMatrix in="shadowBlurOuter1" result="shadowMatrixOuter1" values="0 0 0 0 0 0 0 0 0 0 0 0 0 0 0 0 0 0 0.5 0"/>
            <feMerge>
                <feMergeNode in="shadowMatrixOuter1"/>
                <feMergeNode in="SourceGraphic"/>
            </feMerge>
        </filter>
        <linearGradient id="b" x1="0%" x2="92.417%" y1="0%" y2="89.079%">
            <stop offset="0%" stop-color="#FF6C72"/>
            <stop offset="100%" stop-color="#6737A0"/>
        </linearGradient>
        <circle id="d" cx="310" cy="281" r="58"/>
        <filter id="c" width="141.4%" height="141.4%" x="-20.7%" y="-20.7%" filterUnits="objectBoundingBox">
            <feOffset in="SourceAlpha" result="shadowOffsetOuter1"/>
            <feGaussianBlur in="shadowOffsetOuter1" result="shadowBlurOuter1" stdDeviation="8"/>
            <feColorMatrix in="shadowBlurOuter1" values="0 0 0 0 0 0 0 0 0 0 0 0 0 0 0 0 0 0 0.3 0"/>
        </filter>
    </defs>
    <g fill="none" fill-rule="evenodd">
        <g filter="url(#a)" transform="translate(15 15)">
            <rect width="326" height="317" fill="#2F3442" rx="6"/>
            <path fill="#777590" d="M32.523 36.845v.999h-4.675v-.999h1.787v-5.528c0-.196.006-.397.017-.6l-1.375 1.194a.447.447 0 0 1-.182.095.381.381 0 0 1-.173.003.45.45 0 0 1-.143-.058.356.356 0 0 1-.098-.089l-.4-.576L29.868 29h1.042v7.845h1.614zm-.256 24.27a.43.43 0 0 1 .328.126c.08.084.12.191.12.322v.797h-5.803v-.448c0-.09.018-.184.054-.282a.758.758 0 0 1 .173-.27l2.668-2.751c.227-.233.428-.456.605-.668.177-.213.328-.425.453-.638.125-.212.22-.428.286-.646.065-.219.098-.449.098-.69 0-.233-.035-.438-.104-.616a1.215 1.215 0 0 0-.286-.441 1.184 1.184 0 0 0-.435-.264 1.671 1.671 0 0 0-.557-.088c-.195 0-.374.028-.54.085a1.492 1.492 0 0 0-.44.24 1.36 1.36 0 0 0-.322.364 1.599 1.599 0 0 0-.187.463c-.06.167-.136.28-.23.337-.093.057-.229.07-.408.037l-.673-.123a3.38 3.38 0 0 1 .337-1.097c.165-.315.372-.577.622-.788.25-.21.537-.37.861-.478a3.294 3.294 0 0 1 1.051-.162c.382 0 .732.058 1.052.175.32.116.595.282.828.496.232.215.414.475.545.781.13.307.196.652.196 1.036 0 .327-.046.63-.14.907-.093.278-.22.544-.378.797-.159.253-.344.5-.557.739a27.36 27.36 0 0 1-.67.726l-2.073 2.182a4.57 4.57 0 0 1 .515-.117c.173-.028.337-.043.492-.043h2.52zM27.11 80.477a3.38 3.38 0 0 1 .337-1.097c.164-.315.372-.578.622-.788.25-.21.537-.37.86-.478a3.294 3.294 0 0 1 1.052-.162c.381 0 .728.056 1.04.168.311.112.58.269.804.469.224.2.397.44.518.717.12.278.181.582.181.913 0 .282-.032.53-.098.745a1.851 1.851 0 0 1-.28.567 1.63 1.63 0 0 1-.444.41c-.174.11-.37.203-.59.276.533.16.932.414 1.198.763.266.35.4.788.4 1.315 0 .425-.078.803-.233 1.134-.155.33-.365.61-.629.84a2.761 2.761 0 0 1-.923.523c-.351.121-.724.181-1.117.181-.44 0-.822-.054-1.143-.162a2.429 2.429 0 0 1-1.412-1.198 5.125 5.125 0 0 1-.393-.963l.554-.239a.67.67 0 0 1 .42-.055.4.4 0 0 1 .289.227c.063.13.135.27.214.42.08.149.182.286.307.41.125.125.28.23.464.313.185.084.412.126.682.126.274 0 .514-.046.718-.138.205-.092.375-.21.512-.356a1.51 1.51 0 0 0 .408-1.02c0-.22-.025-.424-.077-.61a.964.964 0 0 0-.3-.475c-.15-.13-.36-.234-.632-.31-.272-.075-.629-.113-1.07-.113v-.95a3.49 3.49 0 0 0 .915-.113c.248-.072.447-.17.596-.294.149-.125.256-.275.321-.45.066-.177.099-.369.099-.577 0-.225-.034-.423-.102-.595a1.155 1.155 0 0 0-.715-.693 1.699 1.699 0 0 0-.553-.085c-.195 0-.375.029-.54.086a1.492 1.492 0 0 0-.44.239c-.13.102-.238.224-.325.365-.087.14-.15.295-.19.462-.056.168-.13.28-.224.337-.093.058-.23.07-.408.037l-.673-.122zm3.592 27.653v-3.224c0-.257.018-.539.053-.845l-2.883 4.07h2.83zm2.299 0v.76a.282.282 0 0 1-.068.19c-.046.053-.115.08-.206.08h-.911v2.23H30.7v-2.23H26.99a.353.353 0 0 1-.235-.083.38.38 0 0 1-.128-.205l-.131-.674 4.115-5.639h1.204v5.571H33zm-4.3 22.211c.206-.045.403-.077.592-.098.189-.02.37-.03.545-.03.449 0 .845.068 1.188.205.344.137.632.326.864.567.232.241.407.524.524.849.117.325.176.677.176 1.057 0 .47-.08.897-.238 1.28a2.87 2.87 0 0 1-.661.985 2.936 2.936 0 0 1-.998.628c-.383.147-.797.22-1.242.22a3.4 3.4 0 0 1-1.412-.297 3.538 3.538 0 0 1-.572-.318 4 4 0 0 1-.47-.377l.393-.564a.385.385 0 0 1 .334-.184c.087 0 .182.033.285.098.104.065.224.136.36.211.138.076.3.146.486.212.187.065.41.098.667.098.282 0 .535-.047.757-.141.222-.094.41-.226.563-.395.153-.17.269-.373.348-.61.08-.237.12-.497.12-.779 0-.257-.037-.488-.11-.692a1.373 1.373 0 0 0-.328-.521 1.426 1.426 0 0 0-.545-.328 2.31 2.31 0 0 0-.757-.113c-.21 0-.426.018-.646.055-.22.037-.444.094-.67.171l-.798-.233.702-4.216h4.152v.57a.632.632 0 0 1-.173.46c-.115.118-.307.177-.577.177h-2.514l-.346 2.053zm1.149 29.088c.258 0 .494-.044.709-.132a1.63 1.63 0 0 0 .55-.364 1.62 1.62 0 0 0 .355-.552 1.88 1.88 0 0 0 .125-.692c0-.27-.04-.512-.122-.727a1.496 1.496 0 0 0-.345-.542 1.529 1.529 0 0 0-.536-.34 1.912 1.912 0 0 0-.688-.12 1.75 1.75 0 0 0-.7.135 1.591 1.591 0 0 0-.873.913c-.08.209-.119.43-.119.662 0 .262.036.5.107.717a1.433 1.433 0 0 0 .83.913c.206.086.441.13.707.13zm-.47-4.584l-.182.233c-.058.073-.114.147-.17.22a2.574 2.574 0 0 1 1.305-.343c.333 0 .653.056.958.169a2.3 2.3 0 0 1 .808.502c.232.223.418.499.557.828a2.9 2.9 0 0 1 .208 1.136c0 .409-.072.791-.217 1.147a2.802 2.802 0 0 1-.61.928 2.875 2.875 0 0 1-.945.625c-.367.153-.773.23-1.218.23-.445 0-.846-.073-1.203-.22a2.596 2.596 0 0 1-1.495-1.588 3.696 3.696 0 0 1-.203-1.256c0-.4.083-.82.25-1.257.167-.437.425-.897.775-1.379l2.108-2.911a.767.767 0 0 1 .277-.22.89.89 0 0 1 .408-.093h1.132l-2.544 3.249zm3.502 21.267v.582c0 .172-.018.31-.054.417a2.312 2.312 0 0 1-.107.27l-3.39 7.097a.885.885 0 0 1-.252.328.668.668 0 0 1-.432.132h-.923l3.454-6.981c.064-.127.127-.241.19-.343.064-.103.136-.2.215-.295H27.3a.278.278 0 0 1-.209-.095.309.309 0 0 1-.09-.217v-.895h5.88zm-3.02 32.397c.258 0 .488-.037.69-.113.203-.076.373-.182.51-.319s.241-.299.313-.487a1.71 1.71 0 0 0 .107-.613c0-.27-.04-.502-.122-.699a1.313 1.313 0 0 0-.855-.775 2.106 2.106 0 0 0-.643-.095c-.23 0-.445.032-.643.095a1.313 1.313 0 0 0-.855.775 1.817 1.817 0 0 0-.122.7c0 .22.036.424.107.612.071.188.176.35.313.487s.306.243.509.319c.203.076.433.113.69.113zm0-6.968c-.234 0-.44.037-.617.11a1.249 1.249 0 0 0-.437.294 1.198 1.198 0 0 0-.26.432c-.057.166-.086.34-.086.524s.025.364.075.54c.05.175.129.332.238.469.11.136.253.246.432.328.178.081.397.122.655.122s.476-.04.655-.122c.179-.082.323-.192.432-.328.11-.137.189-.294.238-.47.05-.175.075-.355.075-.539 0-.183-.03-.358-.087-.524a1.177 1.177 0 0 0-.262-.432 1.286 1.286 0 0 0-.438-.294 1.573 1.573 0 0 0-.613-.11zm1.352 3.31c.528.167.924.433 1.188.796.264.364.396.815.396 1.355 0 .388-.071.74-.214 1.054a2.287 2.287 0 0 1-.602.803c-.258.22-.566.39-.926.511-.36.121-.757.181-1.194.181-.437 0-.835-.06-1.194-.18a2.756 2.756 0 0 1-.927-.512 2.287 2.287 0 0 1-.601-.803 2.52 2.52 0 0 1-.215-1.054c0-.54.132-.991.397-1.355.264-.363.66-.63 1.188-.797-.429-.175-.752-.43-.968-.766-.217-.335-.325-.737-.325-1.207 0-.331.064-.64.19-.926.128-.286.308-.534.54-.744.232-.21.511-.376.837-.497.325-.12.685-.18 1.078-.18s.751.06 1.075.18c.324.12.602.286.834.497a2.234 2.234 0 0 1 .736 1.67c0 .47-.109.872-.325 1.207-.216.335-.54.59-.968.766zm-2.972 22.915c0 .523.136.925.408 1.205.272.28.652.42 1.14.42.263 0 .494-.043.694-.13a1.451 1.451 0 0 0 .825-.855c.072-.193.108-.4.108-.621 0-.258-.04-.488-.117-.69a1.419 1.419 0 0 0-.83-.846 1.745 1.745 0 0 0-.638-.113c-.242 0-.46.04-.655.123a1.474 1.474 0 0 0-.822.855 1.82 1.82 0 0 0-.113.652zm2.198 2.74c.08-.102.153-.2.22-.291.068-.092.131-.185.19-.279a2.35 2.35 0 0 1-.69.346c-.254.08-.524.12-.81.12-.31 0-.608-.054-.894-.163a2.22 2.22 0 0 1-.762-.484 2.36 2.36 0 0 1-.533-.797 2.805 2.805 0 0 1-.2-1.094c0-.388.07-.753.212-1.097.14-.343.338-.642.592-.898.254-.255.558-.456.912-.603.353-.147.744-.22 1.173-.22.425 0 .81.07 1.156.21.345.142.639.34.881.595.242.255.429.56.56.913.131.354.197.743.197 1.168a3.98 3.98 0 0 1-.265 1.443 4.903 4.903 0 0 1-.31.656 8.976 8.976 0 0 1-.408.653l-2.02 2.978a.65.65 0 0 1-.265.221.89.89 0 0 1-.396.086h-1.173l2.633-3.463zm-5.197 26.98v.998h-4.676v-.999h1.787v-5.528c0-.196.006-.396.018-.6l-1.376 1.195a.447.447 0 0 1-.182.095.381.381 0 0 1-.173.003.45.45 0 0 1-.143-.059.356.356 0 0 1-.098-.088l-.399-.577 2.585-2.286h1.042v7.845h1.615zm7.746-3.414c0 .772-.08 1.44-.241 2.004-.161.564-.382 1.031-.664 1.403a2.68 2.68 0 0 1-.995.828c-.381.18-.792.27-1.233.27-.44 0-.852-.09-1.233-.27a2.657 2.657 0 0 1-.992-.828c-.28-.372-.5-.84-.658-1.403-.159-.564-.238-1.232-.238-2.004 0-.773.08-1.442.238-2.008.159-.566.378-1.033.658-1.403.28-.37.61-.646.992-.828a2.827 2.827 0 0 1 1.233-.272c.44 0 .852.09 1.233.272.381.182.713.458.995.828.282.37.503.837.664 1.403.16.566.241 1.235.241 2.008zm-1.322 0c0-.654-.05-1.199-.152-1.634-.101-.435-.235-.783-.402-1.045-.167-.261-.36-.447-.578-.557a1.488 1.488 0 0 0-1.361 0c-.216.11-.408.296-.575.557-.167.262-.3.61-.399 1.045-.1.435-.149.98-.149 1.634 0 .653.05 1.198.15 1.633.098.435.231.783.398 1.045.167.261.359.447.575.558a1.482 1.482 0 0 0 1.361 0c.218-.11.411-.297.578-.558.167-.262.3-.61.402-1.045.101-.435.152-.98.152-1.633zM25.242 282V283h-4.676v-.999h1.787v-5.528c0-.196.006-.397.018-.6l-1.376 1.194a.447.447 0 0 1-.182.095.381.381 0 0 1-.173.003.45.45 0 0 1-.143-.058.356.356 0 0 1-.098-.089l-.399-.576 2.585-2.286h1.042v7.845h1.615zm7.281 0V283h-4.675v-.999h1.787v-5.528c0-.196.006-.397.017-.6l-1.375 1.194a.447.447 0 0 1-.182.095.381.381 0 0 1-.173.003.45.45 0 0 1-.143-.058.356.356 0 0 1-.098-.089l-.4-.576 2.586-2.286h1.042v7.845h1.614z" opacity=".849"/>
            <rect width="31" height="8" x="82" y="30" fill="#777590" opacity=".6" rx="4"/>
            <rect width="31" height="8" x="82" y="55" fill="#777590" opacity=".6" rx="4"/>
            <rect width="11" height="8" x="133" y="103" fill="#777590" opacity=".6" rx="4"/>
            <rect width="20" height="8" x="82" y="226" fill="#777590" opacity=".6" rx="4"/>
            <rect width="95" height="8" x="158" y="103" fill="#777590" opacity=".6" rx="4"/>
            <rect width="149" height="8" x="140" y="153" fill="#777590" opacity=".6" rx="4"/>
            <rect width="100" height="8" x="141" y="178" fill="#777590" opacity=".6" rx="4"/>
            <rect width="100" height="8" x="164" y="275" fill="#777590" opacity=".6" rx="4"/>
            <rect width="60" height="8" x="140" y="129" fill="#777590" opacity=".6" rx="4"/>
            <rect width="60" height="8" x="187" y="202" fill="#777590" opacity=".6" rx="4"/>
            <rect width="68" height="8" x="215" y="55" fill="#777590" opacity=".6" rx="4"/>
            <rect width="48" height="8" x="235" y="30" fill="#777590" opacity=".6" rx="4"/>
            <rect width="95" height="8" x="126" y="30" fill="url(#b)" rx="4"/>
            <rect width="74" height="8" x="126" y="55" fill="url(#b)" rx="4"/>
            <rect width="82" height="8" x="216" y="129" fill="url(#b)" rx="4"/>
            <rect width="39" height="8" x="82" y="103" fill="url(#b)" rx="4"/>
            <rect width="68" height="8" x="82" y="275" fill="url(#b)" rx="4"/>
            <rect width="31" height="8" x="141" y="202" fill="url(#b)" rx="4"/>
            <path stroke="#777590" stroke-linecap="square" d="M54.5.438v316.27" opacity=".6"/>
        </g>
        <g transform="translate(15 15)">
            <use fill="#000" filter="url(#c)" xlink:href="#d"/>
            <use fill="#F9F8FB" xlink:href="#d"/>
        </g>
        <g fill="url(#b)" fill-rule="nonzero" transform="translate(294 265)">
            <path d="M3.617 34.986C.96 36.979 0 40.3 1.18 43.179l.074.221c1.255 2.879 4.207 4.576 7.528 4.133 1.55-.221 3.1.296 4.207 1.403a4.944 4.944 0 0 1 1.403 4.207c-.443 3.247 1.18 6.274 4.133 7.528l.222.074c.812.37 1.697.517 2.583.517 2.14 0 4.207-1.033 5.683-2.879.96-1.254 2.362-1.993 3.986-1.993s3.026.739 3.986 1.993C36.979 61.04 40.3 62 43.252 60.745l.222-.074c2.878-1.254 4.576-4.207 4.133-7.528a4.944 4.944 0 0 1 1.403-4.207 4.944 4.944 0 0 1 4.207-1.403c3.247.443 6.273-1.18 7.528-4.133l.074-.221c1.181-2.953.221-6.274-2.362-8.267-1.255-.96-1.993-2.362-1.993-3.986s.738-3.026 1.993-3.986c2.657-1.992 3.617-5.314 2.362-8.266l-.074-.222c-1.255-2.878-4.207-4.576-7.528-4.133a4.944 4.944 0 0 1-4.207-1.402 4.944 4.944 0 0 1-1.403-4.207c.443-3.248-1.18-6.274-4.133-7.529l-.222-.074C40.3-.073 36.98.886 34.986 3.47c-.96 1.255-2.362 1.993-3.986 1.993s-3.026-.738-3.986-1.993C25.021.959 21.7 0 18.748 1.181l-.222.074c-2.878 1.255-4.576 4.207-4.133 7.528a4.944 4.944 0 0 1-1.403 4.207 4.944 4.944 0 0 1-4.207 1.403c-3.247-.443-6.273 1.18-7.528 4.133l-.074.222C0 21.7.96 25.02 3.543 27.014c1.255.96 1.993 2.362 1.993 3.986s-.665 3.026-1.92 3.986zm1.771 2.362c1.993-1.55 3.1-3.838 3.1-6.348s-1.107-4.798-3.1-6.348c-1.55-1.18-2.14-3.1-1.402-4.797l.074-.222c.664-1.697 2.435-2.583 4.354-2.362 2.51.37 4.946-.516 6.717-2.214 1.771-1.697 2.583-4.207 2.214-6.717-.295-1.919.665-3.69 2.362-4.354l.222-.074c1.697-.664 3.616-.148 4.797 1.402 1.55 1.993 3.838 3.1 6.348 3.1s4.797-1.107 6.347-3.1c1.181-1.55 3.1-2.14 4.798-1.402l.221.074c1.698.664 2.584 2.435 2.362 4.354-.369 2.51.517 4.946 2.215 6.717 1.771 1.772 4.207 2.583 6.716 2.214 1.92-.295 3.69.665 4.355 2.362l.074.222c.664 1.697.148 3.616-1.402 4.797-1.993 1.55-3.1 3.838-3.1 6.348s1.107 4.798 3.1 6.348c1.55 1.18 2.14 3.1 1.402 4.797l-.074.222c-.664 1.697-2.436 2.583-4.355 2.362-2.51-.37-4.945.516-6.716 2.214-1.772 1.771-2.584 4.207-2.215 6.717.296 1.919-.664 3.69-2.362 4.354l-.369.074c-1.697.664-3.616.148-4.797-1.402-1.55-1.993-3.838-3.1-6.348-3.1s-4.797 1.107-6.347 3.1c-1.181 1.55-3.1 2.14-4.798 1.402l-.221-.074c-1.698-.664-2.584-2.435-2.362-4.354.369-2.51-.517-4.946-2.215-6.717-1.476-1.476-3.469-2.288-5.61-2.288-.368 0-.737 0-1.106.074-1.92.295-3.69-.665-4.355-2.362v-.296c-.664-1.623-.074-3.542 1.476-4.723z"/>
            <path d="M31 42.81c6.495 0 11.81-5.315 11.81-11.81S37.495 19.19 31 19.19 19.19 24.505 19.19 31 24.505 42.81 31 42.81zm0-20.667c4.871 0 8.857 3.986 8.857 8.857 0 4.871-3.986 8.857-8.857 8.857-4.871 0-8.857-3.986-8.857-8.857 0-4.871 3.986-8.857 8.857-8.857z"/>
        </g>
    </g>
</svg>
