<?xml version="1.0" encoding="UTF-8"?>
<svg width="66px" height="91px" viewBox="0 0 66 91" version="1.1" xmlns="http://www.w3.org/2000/svg" xmlns:xlink="http://www.w3.org/1999/xlink">
    <!-- Generator: Sketch 47.1 (45422) - http://www.bohemiancoding.com/sketch -->
    <title>noun_1245798_cc copy</title>
    <desc>Created with Sketch.</desc>
    <defs>
        <linearGradient x1="0%" y1="0%" x2="92.4165968%" y2="89.0787941%" id="linearGradient-1">
            <stop stop-color="#FF6C72" offset="0%"></stop>
            <stop stop-color="#6737A0" offset="100%"></stop>
        </linearGradient>
    </defs>
    <g id="Page-1" stroke="none" stroke-width="1" fill="none" fill-rule="evenodd">
        <g id="Home" transform="translate(-869.000000, -1148.000000)" fill-rule="nonzero" fill="url(#linearGradient-1)">
            <g id="noun_1245798_cc-copy" transform="translate(869.000000, 1148.000000)">
                <g id="Group">
                    <path d="M7.26,91 L58.63,91 C62.7,91 65.89,87.7108434 65.89,83.7638554 L65.89,79.1590361 C65.89,77.953012 64.9,76.9662651 63.69,76.9662651 C62.48,76.9662651 61.49,77.953012 61.49,79.1590361 L61.49,83.7638554 C61.49,85.4084337 60.17,86.6144578 58.63,86.6144578 L7.26,86.6144578 C5.61,86.6144578 4.4,85.2987952 4.4,83.7638554 L4.4,42.3204819 C4.4,40.6759036 5.72,39.4698795 7.26,39.4698795 L14.85,39.4698795 C16.06,39.4698795 17.05,38.4831325 17.05,37.2771084 C17.05,36.0710843 16.06,35.0843373 14.85,35.0843373 L13.2,35.0843373 L13.2,24.7783133 C13.2,13.4855422 22.11,4.38554217 33,4.38554217 C43.89,4.38554217 52.8,13.4855422 52.8,24.7783133 L52.8,35.0843373 L23.1,35.0843373 C21.89,35.0843373 20.9,36.0710843 20.9,37.2771084 C20.9,38.4831325 21.89,39.4698795 23.1,39.4698795 L58.74,39.4698795 C60.39,39.4698795 61.6,40.7855422 61.6,42.3204819 L61.6,71.0457831 C61.6,72.2518072 62.59,73.2385542 63.8,73.2385542 C65.01,73.2385542 66,72.2518072 66,71.0457831 L66,42.3204819 C66,38.2638554 62.7,35.0843373 58.74,35.0843373 L57.2,35.0843373 L57.2,24.7783133 C57.2,11.073494 46.31,0 33,0 C19.69,0 8.8,11.073494 8.8,24.7783133 L8.8,35.0843373 L7.26,35.0843373 C3.3,35.0843373 0,38.373494 0,42.3204819 L0,83.6542169 C0,87.7108434 3.3,91 7.26,91 Z" id="Shape"></path>
                    <path d="M33,80.0361446 C34.21,80.0361446 35.2,79.0493976 35.2,77.8433735 L35.2,69.5108434 C35.75,69.4012048 36.41,69.1819277 36.96,68.9626506 C38.17,68.4144578 39.16,67.7566265 40.04,66.8795181 C41.03,65.8927711 41.8,64.5771084 42.35,63.2614458 C42.79,62.1650602 43.01,61.0686747 43.01,59.8626506 C43.01,54.3807229 38.5,49.9951807 33.11,49.9951807 C27.72,49.9951807 23.21,54.4903614 23.21,59.8626506 C23.21,64.5771084 26.51,68.5240964 30.91,69.5108434 L30.91,77.8433735 C30.8,79.0493976 31.79,80.0361446 33,80.0361446 Z M27.5,59.8626506 C27.5,56.7927711 30.03,54.3807229 33,54.3807229 C35.97,54.3807229 38.5,56.9024096 38.5,59.8626506 C38.5,60.5204819 38.39,61.1783133 38.17,61.726506 C37.95,62.4939759 37.4,63.1518072 36.85,63.7 C36.3,64.2481928 35.75,64.5771084 35.09,64.9060241 C34.76,65.0156627 34.43,65.1253012 33.99,65.2349398 C33.66,65.3445783 33.22,65.3445783 32.89,65.3445783 C29.92,65.3445783 27.5,62.8228916 27.5,59.8626506 Z" id="Shape"></path>
                </g>
            </g>
        </g>
    </g>
</svg>