<?xml version="1.0" encoding="UTF-8"?>
<svg width="87px" height="87px" viewBox="0 0 87 87" version="1.1" xmlns="http://www.w3.org/2000/svg" xmlns:xlink="http://www.w3.org/1999/xlink">
    <!-- Generator: Sketch 47.1 (45422) - http://www.bohemiancoding.com/sketch -->
    <title>Page 1</title>
    <desc>Created with Sketch.</desc>
    <defs>
        <polygon id="path-1" points="87 0 87 87 0 87 0 0 87 0"></polygon>
        <linearGradient x1="0%" y1="-8.17863931%" x2="92.4165968%" y2="89.0787941%" id="linearGradient-3">
            <stop stop-color="#FF6C72" offset="0%"></stop>
            <stop stop-color="#6737A0" offset="100%"></stop>
        </linearGradient>
    </defs>
    <g id="Page-1" stroke="none" stroke-width="1" fill="none" fill-rule="evenodd">
        <g id="Home" transform="translate(-315.000000, -869.000000)">
            <g id="Page-1" transform="translate(315.000000, 869.000000)">
                <mask id="mask-2" fill="white">
                    <use xlink:href="#path-1"></use>
                </mask>
                <g id="Clip-2"></g>
                <path d="M28.5346598,15.5177077 L44.2270475,15.5177077 C48.0554942,15.5177077 51.5589474,16.1507405 54.6402439,17.4011204 C57.6589987,18.6257308 60.2567137,20.415029 62.3607959,22.7185963 C64.4950321,25.0535351 66.1769576,27.9755699 67.3607831,31.4062717 C68.5725289,34.9165229 69.1867779,38.9948229 69.1867779,43.5280103 C69.1867779,48.0611977 68.5725289,52.1394977 67.3607831,55.647508 C66.1791913,59.0759691 64.4994994,61.9867997 62.3708472,64.2993303 C60.2634146,66.5894527 57.663466,68.3720283 54.6402439,69.5988796 C51.5600642,70.8481391 48.056611,71.4822923 44.2270475,71.4822923 L28.5346598,71.4822923 L28.5346598,49.6902769 L41.3780488,49.6902769 C43.2274968,49.6902769 44.7284981,48.1855634 44.7284981,46.3290406 L44.7284981,39.9426916 C44.7284981,38.0861687 43.2274968,36.5814552 41.3780488,36.5814552 L28.5346598,36.5814552 L28.5346598,15.5177077 Z M44.2270475,0 L14.2952503,0 C12.4446855,0 10.944801,1.50471346 10.944801,3.36123632 L10.944801,36.5814552 L3.35044929,36.5814552 C1.49988447,36.5814552 0,38.0861687 0,39.9426916 L0,46.3290406 C0,48.1855634 1.49988447,49.6902769 3.35044929,49.6902769 L10.944801,49.6902769 L10.944801,83.6387637 C10.944801,85.4952865 12.4446855,87 14.2952503,87 L44.2270475,87 C50.5069063,87 56.3333376,85.9490534 61.5444031,83.8785319 C66.7945571,81.7912041 71.3690372,78.7929813 75.1416431,74.966774 C78.9108986,71.1461687 81.8671117,66.4986993 83.927638,61.1543335 C85.965828,55.8581455 87,49.9278042 87,43.5280103 C87,37.1282164 85.965828,31.1978751 83.9287548,25.9028075 C81.8693453,20.5595621 78.914249,15.9053703 75.1472272,12.0668384 C71.3746213,8.22046362 66.7979076,5.20991629 61.5444031,3.12146813 C56.331104,1.04982614 50.5046727,0 44.2270475,0 L44.2270475,0 Z M25.1842105,39.9426916 L41.3780488,39.9426916 L41.3780488,46.3290406 L25.1842105,46.3290406 L25.1842105,74.8435287 L44.2270475,74.8435287 C48.5066881,74.8435287 52.3976765,74.1343078 55.8966624,72.7147457 C59.3956483,71.2951835 62.3753145,69.2504314 64.8311938,66.5804894 C67.2893068,63.9105473 69.1867779,60.6333419 70.5269576,56.7488731 C71.8682542,52.8644044 72.5372272,48.4578236 72.5372272,43.5280103 C72.5372272,38.598197 71.8682542,34.1916162 70.5269576,30.3071475 C69.1867779,26.4226787 67.2893068,23.13651 64.8311938,20.4475209 C62.3753145,17.7585319 59.3956483,15.7048165 55.8966624,14.2852543 C52.3976765,12.8656922 48.5066881,12.1564713 44.2270475,12.1564713 L25.1842105,12.1564713 L25.1842105,39.9426916 L25.1842105,39.9426916 Z M44.2270475,3.36123632 C50.107086,3.36123632 55.4689217,4.3225499 60.3092041,6.24629749 C65.1472529,8.17004507 69.2984596,10.8960077 72.7605905,14.4253059 C76.2238383,17.954604 78.9030809,22.1841597 80.8027856,27.113973 C82.7002567,32.0437862 83.6495507,37.5147585 83.6495507,43.5280103 C83.6495507,49.5412621 82.7002567,55.0122344 80.8027856,59.9420476 C78.9030809,64.8718609 76.2238383,69.0924533 72.7605905,72.6027044 C69.2984596,76.1129556 65.1472529,78.8299549 60.3092041,80.7537025 C55.4689217,82.6774501 50.107086,83.6387637 44.2270475,83.6387637 L14.2952503,83.6387637 L14.2952503,46.3290406 L3.35044929,46.3290406 L3.35044929,39.9426916 L14.2952503,39.9426916 L14.2952503,3.36123632 L44.2270475,3.36123632 L44.2270475,3.36123632 Z" id="Fill-1" fill="url(#linearGradient-3)" mask="url(#mask-2)"></path>
            </g>
        </g>
    </g>
</svg>