<?xml version="1.0" encoding="UTF-8"?>
<svg width="103px" height="94px" viewBox="0 0 103 94" version="1.1" xmlns="http://www.w3.org/2000/svg" xmlns:xlink="http://www.w3.org/1999/xlink">
    <!-- Generator: Sketch 47.1 (45422) - http://www.bohemiancoding.com/sketch -->
    <title>noun_1410366_cc copy</title>
    <desc>Created with Sketch.</desc>
    <defs>
        <linearGradient x1="0%" y1="0%" x2="92.4165968%" y2="89.0787941%" id="linearGradient-1">
            <stop stop-color="#FF6C72" offset="0%"></stop>
            <stop stop-color="#6737A0" offset="100%"></stop>
        </linearGradient>
    </defs>
    <g id="Page-1" stroke="none" stroke-width="1" fill="none" fill-rule="evenodd">
        <g id="Home" transform="translate(-489.000000, -1146.000000)" stroke="#FFFFFF" fill-rule="nonzero" fill="url(#linearGradient-1)">
            <g id="noun_1410366_cc-copy" transform="translate(490.000000, 1147.000000)">
                <path d="M54.6794621,0 C42.0862828,0 30.3036366,4.93202771 21.513348,13.888534 C20.5574303,14.8584782 20.5780486,16.4268986 21.5547475,17.3968431 C22.5314463,18.3461502 24.1107889,18.325674 25.0874876,17.3557298 C32.9426391,9.36916799 43.4370363,4.97346331 54.6794621,4.97346331 C77.4760261,4.9528262 96.0126022,23.3612901 96.0126022,46.0002011 C96.0126022,68.6391121 77.4760261,87.0470933 54.6794621,87.0470933 C31.8828981,87.0470933 13.3463218,68.6391121 13.3463218,46.0002011 L13.3463218,45.4842733 L17.4610875,49.5701799 C17.9390465,50.0448334 18.583252,50.2924788 19.2274575,50.2924788 C19.8716631,50.2924788 20.4950878,50.0448334 20.9938274,49.5701799 C21.9705261,48.6002357 21.9705261,47.0318152 20.9938274,46.061871 L12.6396928,37.7453566 C11.662994,36.7754124 10.0836514,36.7754124 9.10695267,37.7453566 L0.732524048,46.061871 C-0.244174683,47.0318152 -0.244174683,48.6002357 0.732524048,49.5701799 C1.70922278,50.5401241 3.28856549,50.5401241 4.26526422,49.5701799 L8.37962383,45.4842733 L8.37962383,46.0002011 C8.37962383,58.2792823 13.2009373,69.835984 21.9496642,78.5242079 C30.6983912,87.2124317 42.3355716,92 54.7001619,92 C67.0647522,92 78.7019327,87.2124317 87.4506596,78.5242079 C96.1993865,69.835984 101,58.2792823 101,46.0002011 C101,33.72112 96.1786867,22.1640158 87.4299598,13.4757917 C78.6812329,4.78756793 67.0440524,0 54.6794621,0 Z M43.3537736,27.5051546 C40.9329201,27.5051546 38.6593409,28.4480123 36.954218,30.1453031 C35.2490952,31.8425939 34.3018868,34.10573 34.3018868,36.5154639 C34.3018868,38.9251978 35.2490952,41.1883339 36.954218,42.8856248 C38.6593409,44.5829156 40.9329201,45.5257732 43.3537736,45.5257732 C45.774627,45.5257732 48.0477958,44.5829156 49.7529186,42.8856248 C51.4580415,41.1883339 52.4056604,38.9251978 52.4056604,36.5154639 C52.4056604,34.10573 51.4580415,31.8425939 49.7529186,30.1453031 C48.0267449,28.4480123 45.774627,27.5051546 43.3537736,27.5051546 Z M68.9896074,28.4536289 C68.3573063,28.4561891 67.7250053,28.6967682 67.2417834,29.1780861 L36.93238,59.3476612 C35.9659362,60.310297 35.9659362,61.8668995 36.93238,62.8295353 C37.4053206,63.3006124 38.0427623,63.5463918 38.680204,63.5463918 C39.3176456,63.5463918 39.9345247,63.3006124 40.4280279,62.8295353 L70.7374313,32.6395585 C71.7038751,31.6769227 71.7038751,30.1203201 70.7374313,29.1576843 C70.2542094,28.6866072 69.6219084,28.4510687 68.9896074,28.4536289 Z M42.8775551,32.2474227 C43.9060386,32.2474227 44.8535421,32.6488762 45.5795304,33.35142 C46.3055187,34.0740364 46.6886792,35.0175305 46.6886792,36.0412371 C46.6886792,37.044871 46.3055187,38.0084378 45.5795304,38.7310543 C44.8535421,39.4536707 43.9060386,39.8350515 42.8775551,39.8350515 C41.8490716,39.8350515 40.9011749,39.433598 40.1751866,38.7310543 C39.4491982,38.0084378 39.0660377,37.0649437 39.0660377,36.0412371 C39.0660377,35.0175305 39.4693646,34.0740364 40.1751866,33.35142 C40.9011749,32.6288036 41.8490716,32.2474227 42.8775551,32.2474227 Z M66.2216981,47.4226804 C63.7966369,47.4226804 61.5401934,48.3666528 59.8110193,50.0659504 C56.2894087,53.5694404 56.2894087,59.296539 59.8110193,62.800029 C61.5191059,64.4993266 63.7966369,65.443299 66.2216981,65.443299 C68.6467593,65.443299 70.9242903,64.4993266 72.6323769,62.800029 C76.1539876,59.296539 76.1539876,53.5694404 72.6323769,50.0659504 C70.9242903,48.3666528 68.6467593,47.4226804 66.2216981,47.4226804 Z M65.745283,52.1649485 C66.7709999,52.1649485 67.7163469,52.5664227 68.4403824,53.2690027 C69.9286776,54.7544575 69.9286776,57.1630683 68.4403824,58.6485231 C67.7163469,59.3711768 66.7709999,59.7525773 65.745283,59.7525773 C64.7195661,59.7525773 63.7742191,59.351103 63.0501836,58.6485231 C61.5618885,57.1630683 61.5618885,54.7544575 63.0501836,53.2690027 C63.7742191,52.546349 64.7195661,52.1649485 65.745283,52.1649485 Z" id="Shape"></path>
            </g>
        </g>
    </g>
</svg>