<svg xmlns="http://www.w3.org/2000/svg" width="109" height="102" viewBox="0 0 109 102">
    <defs>
        <linearGradient id="a" x1="0%" y1="0%" y2="100%">
            <stop offset="0%" stop-color="#FF6C72"/>
            <stop offset="100%" stop-color="#6737A0"/>
        </linearGradient>
    </defs>
    <path fill="url(#a)" fill-rule="nonzero" d="M378.964 826c-5.352 0-9.732 4.414-9.732 9.808a9.804 9.804 0 0 0 2.92 6.972l-8.98 15.087c-1.183-.291-2.402-.482-3.672-.482-4.66 0-8.806 2.122-11.663 5.41l-1.962-1.487-2.334 3.141 2.114 1.602c-1.068 2.124-1.726 4.49-1.726 7.026 0 2.514.644 4.855 1.695 6.965l-22.163 14.888c-1.919-1.394-4.249-2.238-6.782-2.238-6.427 0-11.679 5.293-11.679 11.77 0 6.477 5.252 11.769 11.679 11.769 6.426 0 11.678-5.292 11.678-11.77 0-2.485-.782-4.792-2.098-6.696l21.532-14.467c2.859 3.32 7.022 5.471 11.709 5.471 2.508 0 4.848-.663 6.95-1.731l1.512 2.145 3.171-2.283-1.46-2.046c3.279-2.88 5.398-7.067 5.398-11.777 0-.081-.021-.157-.022-.238l24.672-3.317c1.397 2.132 3.786 3.555 6.493 3.555 4.277 0 7.786-3.536 7.786-7.846 0-4.31-3.509-7.846-7.786-7.846-4.277 0-7.785 3.536-7.785 7.846 0 .173.042.335.053.505l-24.026 3.226a15.654 15.654 0 0 0-7.611-9.631l8.584-14.413c1.1.437 2.287.697 3.535.697 5.352 0 9.732-4.414 9.732-9.807 0-5.394-4.38-9.808-9.732-9.808zm0 3.923c3.248 0 5.84 2.612 5.84 5.885 0 3.273-2.592 5.884-5.84 5.884-3.248 0-5.839-2.61-5.839-5.884 0-3.273 2.591-5.885 5.84-5.885zm-50.607 11.77c-4.277 0-7.786 3.536-7.786 7.845 0 4.31 3.51 7.847 7.786 7.847a7.654 7.654 0 0 0 4.174-1.257l1.665 1.257 2.335-3.134-1.354-1.027c.594-1.106.966-2.348.966-3.686 0-4.31-3.509-7.846-7.786-7.846zm0 3.922c2.173 0 3.893 1.734 3.893 3.923 0 2.19-1.72 3.924-3.893 3.924s-3.893-1.734-3.893-3.924 1.72-3.923 3.893-3.923zm11.291 10.988l-2.334 3.142 3.11 2.352 2.334-3.142-3.11-2.352zm19.852 4.705c6.473 0 11.679 5.246 11.679 11.769s-5.206 11.77-11.679 11.77-11.679-5.247-11.679-11.77 5.206-11.77 11.679-11.77zm46.714 0c2.173 0 3.893 1.733 3.893 3.923s-1.72 3.923-3.893 3.923-3.893-1.733-3.893-3.923 1.72-3.923 3.893-3.923zM373.4 890.095l-3.17 2.283 2.257 3.188 3.17-2.276-2.257-3.195zm4.524 6.382l-3.17 2.284 2.265 3.187 3.163-2.275-2.258-3.196zm-61.244.138c4.323 0 7.785 3.49 7.785 7.847 0 4.356-3.462 7.846-7.785 7.846s-7.786-3.49-7.786-7.846c0-4.357 3.463-7.847 7.786-7.847zm65.768 6.245l-3.171 2.283 2.266 3.196 3.163-2.284-2.258-3.195zm10.142 5.525c-1.895 0-3.654.57-5.155 1.524l-.464-.659-3.17 2.276.79 1.111a9.784 9.784 0 0 0-1.733 5.555c0 5.394 4.38 9.808 9.732 9.808 5.352 0 9.732-4.414 9.732-9.808 0-5.393-4.38-9.807-9.732-9.807zm0 3.923c3.248 0 5.84 2.611 5.84 5.884 0 3.274-2.592 5.885-5.84 5.885-3.248 0-5.839-2.611-5.839-5.885 0-3.273 2.591-5.884 5.84-5.884z" transform="translate(-305 -826)"/>
</svg>
