<?xml version="1.0" encoding="UTF-8"?>
<svg width="173px" height="46px" viewBox="0 0 173 46" version="1.1" xmlns="http://www.w3.org/2000/svg" xmlns:xlink="http://www.w3.org/1999/xlink">
    <!-- Generator: Sketch 47.1 (45422) - http://www.bohemiancoding.com/sketch -->
    <title>Logo</title>
    <desc>Created with Sketch.</desc>
    <defs>
        <linearGradient x1="22.8918501%" y1="50.0379653%" x2="99.9775378%" y2="50.0379653%" id="linearGradient-1">
            <stop stop-color="#243773" offset="0%"></stop>
            <stop stop-color="#2857A7" offset="100%"></stop>
        </linearGradient>
        <linearGradient x1="1.18429856%" y1="50.1337748%" x2="99.6283454%" y2="50.1337748%" id="linearGradient-2">
            <stop stop-color="#4992CF" offset="0%"></stop>
            <stop stop-color="#62CBE6" offset="100%"></stop>
        </linearGradient>
    </defs>
    <g id="Page-1" stroke="none" stroke-width="1" fill="none" fill-rule="evenodd">
        <g id="Home" transform="translate(-229.000000, -2347.000000)" fill-rule="nonzero">
            <g id="Logo" transform="translate(229.000000, 2347.000000)">
                <g id="Group">
                    <polygon id="Shape" fill="url(#linearGradient-1)" points="24.8668712 0.545007404 36.9842025 22.5633065 49.2069018 44.4726042 24.8668712 44.4726042 0.421472393 44.4726042 12.6441718 22.5633065"></polygon>
                    <polygon id="Shape" fill="url(#linearGradient-2)" points="41.5150307 30.5204146 50.9981595 14.061191 32.242638 14.061191"></polygon>
                    <polygon id="Shape" fill="#FFFFFF" points="41.4096626 30.5204146 32.242638 13.9521895 22.9702454 30.5204146"></polygon>
                </g>
                <g id="Group" transform="translate(82.000000, 38.000000)" fill="#010101">
                    <path d="M1.17982057,1.12392638 L2.14512831,1.12392638 C2.89592321,1.12392638 3.32494888,1.46110429 3.64671812,1.68588957 C3.96848737,2.02306748 4.07574378,2.58503067 4.07574378,3.14699387 C4.07574378,3.70895706 3.96848737,4.15852761 3.64671812,4.60809816 C3.43220529,4.83288344 3.00317963,5.17006135 2.14512831,5.17006135 L1.28707698,5.17006135 L1.28707698,7.19312883 L0.321769246,7.19312883 L0.321769246,1.12392638 L1.17982057,1.12392638 Z M3.21769246,3.14699387 C3.21769246,2.92220859 3.21769246,2.58503067 3.00317963,2.3602454 C2.7886668,2.13546012 2.57415397,2.02306748 2.14512831,2.02306748 L1.28707698,2.02306748 L1.28707698,4.38331288 L2.14512831,4.38331288 C2.57415397,4.38331288 2.7886668,4.27092025 3.00317963,4.04613497 C3.21769246,3.70895706 3.21769246,3.37177914 3.21769246,3.14699387 Z" id="Shape"></path>
                    <path d="M15.230411,7.19312883 L14.1578468,7.19312883 L12.656257,5.17006135 L12.0127185,5.17006135 L12.0127185,7.19312883 L11.0474108,7.19312883 L11.0474108,1.12392638 L11.7982057,1.12392638 L12.7635134,1.12392638 C13.5143083,1.12392638 13.943334,1.46110429 14.2651032,1.68588957 C14.5868725,2.02306748 14.6941289,2.58503067 14.6941289,3.14699387 C14.6941289,3.70895706 14.4796161,4.15852761 14.2651032,4.60809816 C14.1578468,4.7204908 13.943334,4.94527607 13.6215647,5.05766871 L15.230411,7.19312883 Z M12.8707698,4.27092025 C13.2997955,4.27092025 13.5143083,4.15852761 13.7288212,3.93374233 C13.943334,3.70895706 13.943334,3.37177914 13.943334,3.14699387 C13.943334,2.92220859 13.943334,2.58503067 13.7288212,2.3602454 C13.5143083,2.13546012 13.2997955,2.02306748 12.8707698,2.02306748 L12.0127185,2.02306748 L12.0127185,4.38331288 L12.8707698,4.38331288 L12.8707698,4.27092025 Z" id="Shape"></path>
                    <path d="M23.8109242,6.96834356 C23.489155,6.85595092 23.1673857,6.63116564 22.8456165,6.29398773 C22.5238472,6.06920245 22.3093344,5.73202454 22.202078,5.28245399 C22.0948216,4.94527607 21.9875651,4.49570552 21.9875651,4.04613497 C21.9875651,3.59656442 22.0948216,3.2593865 22.202078,2.80981595 C22.3093344,2.47263804 22.5238472,2.13546012 22.8456165,1.79828221 C23.1673857,1.57349693 23.3818985,1.34871166 23.8109242,1.12392638 C24.1326934,1.01153374 24.5617191,0.899141104 24.9907448,0.899141104 C25.4197704,0.899141104 25.7415397,1.01153374 26.1705653,1.12392638 C26.4923346,1.23631902 26.8141038,1.46110429 27.1358731,1.79828221 C27.4576423,2.13546012 27.5648987,2.3602454 27.7794116,2.80981595 C27.886668,3.14699387 27.9939244,3.59656442 27.9939244,4.04613497 C27.9939244,4.49570552 27.886668,4.83288344 27.7794116,5.28245399 C27.6721552,5.6196319 27.4576423,5.95680982 27.1358731,6.29398773 C26.8141038,6.51877301 26.599591,6.74355828 26.1705653,6.96834356 C25.8487961,7.0807362 25.4197704,7.19312883 24.9907448,7.19312883 C24.5617191,7.19312883 24.1326934,7.0807362 23.8109242,6.96834356 Z M23.489155,2.69742331 C23.0601293,3.14699387 22.8456165,3.59656442 22.8456165,4.15852761 C22.8456165,4.7204908 23.0601293,5.28245399 23.489155,5.6196319 C23.9181806,6.06920245 24.3472063,6.29398773 24.8834884,6.29398773 C25.4197704,6.29398773 25.9560525,6.06920245 26.2778218,5.6196319 C26.7068474,5.17006135 26.9213602,4.7204908 26.9213602,4.15852761 C26.9213602,3.59656442 26.7068474,3.03460123 26.2778218,2.69742331 C25.8487961,2.24785276 25.4197704,2.13546012 24.8834884,2.13546012 C24.3472063,2.02306748 23.9181806,2.24785276 23.489155,2.69742331 Z" id="Shape"></path>
                    <path d="M37.432489,5.05766871 C37.432489,5.84441718 37.1107197,6.40638037 36.7889505,6.63116564 C36.4671812,6.96834356 35.9308991,7.0807362 35.3946171,7.0807362 C35.2873606,7.0807362 35.1801042,7.0807362 35.0728478,7.0807362 L35.0728478,6.06920245 C35.1801042,6.06920245 35.2873606,6.06920245 35.3946171,6.06920245 C35.7163863,6.06920245 36.0381556,5.95680982 36.2526684,5.84441718 C36.4671812,5.6196319 36.5744376,5.39484663 36.5744376,4.94527607 L36.5744376,1.12392638 L37.5397454,1.12392638 L37.5397454,5.05766871 L37.432489,5.05766871 Z" id="Shape"></path>
                    <polygon id="Shape" points="45.7984893 3.59656442 47.9436177 3.59656442 47.9436177 4.49570552 45.7984893 4.49570552 45.7984893 6.40638037 48.3726433 6.40638037 48.3726433 7.30552147 45.7984893 7.30552147 44.940438 7.30552147 44.940438 1.12392638 45.7984893 1.12392638 48.3726433 1.12392638 48.3726433 2.02306748 45.7984893 2.02306748"></polygon>
                    <path d="M59.8490798,6.63116564 C59.7418233,6.74355828 59.5273105,6.85595092 59.4200541,6.85595092 C59.0982848,6.96834356 58.6692592,7.0807362 58.2402335,7.0807362 C57.8112079,7.0807362 57.4894386,6.96834356 57.060413,6.85595092 C56.7386437,6.74355828 56.4168745,6.51877301 56.0951052,6.18159509 C55.773336,5.95680982 55.5588231,5.6196319 55.4515667,5.17006135 C55.3443103,4.83288344 55.2370539,4.38331288 55.2370539,3.93374233 C55.2370539,3.48417178 55.3443103,3.14699387 55.4515667,2.69742331 C55.5588231,2.3602454 55.773336,2.02306748 56.0951052,1.68588957 C56.4168745,1.46110429 56.6313873,1.23631902 57.060413,1.01153374 C57.3821822,0.899141104 57.8112079,0.786748466 58.2402335,0.786748466 C58.6692592,0.786748466 58.9910284,0.899141104 59.4200541,1.01153374 C59.4200541,1.01153374 59.5273105,1.01153374 59.5273105,1.12392638 L59.5273105,2.24785276 C59.2055413,1.91067485 58.7765156,1.79828221 58.2402335,1.79828221 C57.7039514,1.79828221 57.1676694,2.02306748 56.8459001,2.3602454 C56.4168745,2.80981595 56.2023616,3.2593865 56.2023616,3.82134969 C56.2023616,4.38331288 56.4168745,4.94527607 56.8459001,5.28245399 C57.2749258,5.73202454 57.7039514,5.95680982 58.2402335,5.95680982 C58.7765156,5.95680982 59.3127977,5.73202454 59.6345669,5.28245399 C59.7418233,5.17006135 59.7418233,5.17006135 59.8490798,5.05766871 L59.8490798,6.63116564 Z" id="Shape"></path>
                    <polygon id="Shape" points="70.8964905 1.91067485 69.2876443 1.91067485 69.2876443 7.19312883 68.3223366 7.19312883 68.3223366 1.91067485 66.7134903 1.91067485 66.7134903 1.12392638 70.8964905 1.12392638"></polygon>
                </g>
                <path d="M94.3333333,24.6619718 C94.3333333,25.7183099 94,26.4577465 93.3333333,26.9859155 C92.6666667,27.5140845 91.8888889,27.7253521 90.8888889,27.7253521 C89.8888889,27.7253521 89,27.5140845 88.4444444,26.9859155 C87.7777778,26.4577465 87.4444444,25.7183099 87.4444444,24.6619718 L87.4444444,16 L84,16 L84,25.5070423 C84,27.0915493 84.6666667,28.3591549 86,29.415493 C87.3333333,30.471831 89,31 91,31 C93,31 94.6666667,30.471831 96,29.415493 C97.3333333,28.3591549 98,26.9859155 98,25.5070423 L98,16 L94.3333333,16 L94.3333333,24.6619718 Z" id="Shape" fill="#0A1419"></path>
                <path d="M112,19.2978723 C113.333333,19.2978723 114.555556,19.7234043 115.555556,20.4680851 L115.666667,20.5744681 L118,18.1276596 L117.888889,18.0212766 C116.222222,16.6382979 114.333333,16 112,16 C109.777778,16 107.888889,16.7446809 106.333333,18.1276596 C104.777778,19.6170213 104,21.4255319 104,23.4468085 C104,25.5744681 104.777778,27.3829787 106.333333,28.8723404 C107.888889,30.3617021 109.777778,31 112,31 L112,31 C114.222222,31 116.222222,30.3617021 117.888889,28.9787234 L118,28.8723404 L115.666667,26.4255319 L115.555556,26.5319149 C114.555556,27.2765957 113.333333,27.7021277 112,27.7021277 C110.666667,27.7021277 109.555556,27.2765957 108.777778,26.5319149 C108,25.787234 107.555556,24.7234043 107.555556,23.3404255 C107.555556,22.0638298 108,21.106383 108.777778,20.2553191 C109.555556,19.6170213 110.555556,19.2978723 112,19.2978723 Z" id="Shape" fill="#0A1419"></path>
                <polygon id="Shape" fill="#0A1419" points="123 19.0633803 128.264 19.0633803 128.264 31 131.736 31 131.736 19.0633803 137 19.0633803 137 16 123 16"></polygon>
                <path d="M152.333333,24.6619718 C152.333333,25.7183099 152,26.4577465 151.333333,26.9859155 C150.666667,27.5140845 149.888889,27.7253521 148.888889,27.7253521 C147.888889,27.7253521 147,27.5140845 146.444444,26.9859155 C145.777778,26.4577465 145.444444,25.7183099 145.444444,24.6619718 L145.444444,16 L142,16 L142,25.5070423 C142,27.0915493 142.666667,28.3591549 144,29.415493 C145.333333,30.471831 147,31 149,31 C151,31 152.666667,30.471831 154,29.415493 C155.333333,28.3591549 156,26.9859155 156,25.5070423 L156,16 L152.555556,16 L152.555556,24.6619718 L152.333333,24.6619718 Z" id="Shape" fill="#0A1419"></path>
                <path d="M171.661828,22.1830986 C170.665763,21.443662 169.570092,21.0211268 168.374814,20.915493 C167.279143,20.7042254 166.581898,20.4929577 166.283078,20.0704225 C165.984259,19.7535211 165.984259,19.3309859 166.283078,18.8028169 C166.581898,18.2746479 167.279143,18.0633803 168.275208,18.0633803 C169.370879,18.0633803 170.167731,18.4859155 170.76537,19.2253521 L170.864976,19.3309859 L172.956712,17.1126761 L172.857106,17.0070423 C172.259467,16.3732394 171.562222,15.8450704 170.76537,15.528169 C170.068124,15.2112676 168.972453,15 167.677569,15 C166.581898,15 165.38662,15.4225352 164.290949,16.1619718 C163.195278,17.0070423 162.597639,18.0633803 162.597639,19.4366197 C162.597639,20.915493 163.095671,21.971831 164.091736,22.6056338 C165.087801,23.2394366 166.083865,23.556338 167.279143,23.6619718 C168.474421,23.7676056 169.171666,24.084507 169.470486,24.6126761 C169.769305,25.1408451 169.769305,25.5633803 169.470486,26.0915493 C169.171666,26.6197183 168.474421,26.8309859 167.279143,26.8309859 C165.884652,26.7253521 164.788981,26.3028169 164.191342,25.5633803 L164.091736,25.4577465 L162,27.6760563 L162.099606,27.7816901 C162.697245,28.415493 163.494097,28.943662 164.390555,29.3661972 C165.287014,29.7887324 166.382685,30 167.677569,30 C169.07206,30 170.267337,29.5774648 171.363009,28.7323944 C172.45868,27.8873239 172.956712,26.8309859 172.956712,25.5633803 C173.155925,24.084507 172.657893,22.9225352 171.661828,22.1830986 Z" id="Shape" fill="#0A1419"></path>
                <polygon id="Shape" fill="#0A1419" points="72.7103448 16 69.4 16 63 31 66.7517241 31 67.6344828 28.7816901 67.6344828 28.7816901 70.6137931 21.8098592 71.1655172 20.5422535 73.1517241 25.5070423 73.1517241 25.5070423 75.3586207 31 79 31"></polygon>
            </g>
        </g>
    </g>
</svg>