<!-- Generator: Adobe Illustrator 22.0.1, SVG Export Plug-In  -->
<svg version="1.1"
	 xmlns="http://www.w3.org/2000/svg" xmlns:xlink="http://www.w3.org/1999/xlink" xmlns:a="http://ns.adobe.com/AdobeSVGViewerExtensions/3.0/"
	 x="0px" y="0px" width="245.7px" height="107.5px" viewBox="0 0 245.7 107.5" style="enable-background:new 0 0 245.7 107.5;"
	 xml:space="preserve">
<style type="text/css">
	.st0{fill:#2979FF;}
	.st1{fill:none;stroke:#2979FF;stroke-width:6.6335;stroke-miterlimit:10;}
</style>
<defs>
</defs>
<path class="st0" d="M53.7,0L53.7,0c-2.9,0-5.8,0.2-8.6,0.7v27.4H34.2V3.7C20.2,9.2,9,20.4,3.6,34.5h69.8v38.9H34.2V51.7h10.9v10.7
	h17.3V45.3H48.7h-3.3H33h-2.4H0.7C0.2,48.1,0,50.9,0,53.7v0c0,29.7,24.1,53.7,53.7,53.7h0c29.7,0,53.7-24.1,53.7-53.7v0
	C107.5,24.1,83.4,0,53.7,0z"/>
<path class="st0" d="M132,76.9V29h9.2v20.6c1.5-2.9,5.2-4.4,9.1-4.4c8,0,15,6.3,15,16.3c0,9.8-7,16.1-15,16.1
	c-3.8,0-7.6-1.7-9.1-4.5v3.8H132z M148.5,68.8c3.9,0,7.2-2.9,7.2-7.5c0-4.4-3.2-7.4-7.2-7.4c-3.8,0-7.2,2.7-7.2,7.4
	C141.3,65.7,144.7,68.8,148.5,68.8z"/>
<path class="st0" d="M213.1,45.9h10.7l4.6,6.8l4.6-6.8h10.7l-10.2,14.2l12.1,16.8H235l-6.6-9.5l-6.6,9.5h-10.7l12.2-16.8L213.1,45.9
	z"/>
<path class="st1" d="M189.5,69.5"/>
<path class="st0" d="M201,47l1.4-2.1l-4.9-3.1l-1.3,2.1c-2.1-0.9-4.5-1.4-6.9-1.4c-8.9,0-17,6.8-17,17.5c0,5.3,2.1,9.7,5.3,12.8
	l-1.9,2.9l4.9,3.1l1.8-2.9c2.1,1,4.5,1.5,6.9,1.5c9.1,0,17-7,17-17.5C206.3,54.4,204.2,50,201,47z M181,59.9c0-5.4,4-8.8,8.2-8.8
	c0.7,0,1.4,0.1,2.1,0.3L182.5,65C181.6,63.6,181,61.9,181,59.9z M189.2,68.8c-0.7,0-1.4-0.1-2.1-0.3l8.9-13.8c1,1.4,1.5,3.2,1.5,5.2
	C197.6,65.2,193.5,68.8,189.2,68.8z"/>
</svg>
