<?xml version="1.0" encoding="UTF-8"?>
<svg width="407px" height="74px" viewBox="0 0 407 74" version="1.1" xmlns="http://www.w3.org/2000/svg" xmlns:xlink="http://www.w3.org/1999/xlink">
    <!-- Generator: Sketch 47.1 (45422) - http://www.bohemiancoding.com/sketch -->
    <title>Amadeus</title>
    <desc>Created with Sketch.</desc>
    <defs>
        <linearGradient x1="2.88065125%" y1="2.77661101%" x2="92.4165968%" y2="89.0787941%" id="linearGradient-1">
            <stop stop-color="#FC535A" offset="0%"></stop>
            <stop stop-color="#6737A0" offset="100%"></stop>
        </linearGradient>
    </defs>
    <g id="Page-1" stroke="none" stroke-width="1" fill="none" fill-rule="evenodd">
        <g id="Home" transform="translate(-517.000000, -209.000000)">
            <g id="Amadeus" transform="translate(517.000000, 209.000000)">
                <path d="M67.794596,23.7115262 C64.7406137,23.7115262 62.255517,26.1927057 62.255517,29.2423797 L62.255517,61.6222974 C62.255517,66.755795 58.0729605,70.9326221 52.9319699,70.9326221 C47.7903225,70.9326221 43.607766,66.755795 43.607766,61.6222974 L43.607766,12.3777026 C43.607766,9.32802864 41.1226692,6.84684908 38.068687,6.84684908 C35.0147047,6.84684908 32.5296079,9.32802864 32.5296079,12.3777026 L32.5296079,44.7576203 C32.5296079,49.8917736 28.3470515,54.067945 23.2060609,54.067945 C18.0644134,54.067945 13.881857,49.8917736 13.881857,44.7576203 L13.881857,38.5527043 L4.96493824,38.5527043 C3.92176254,38.5527043 3.07237578,37.7048806 3.07237578,36.662313 C3.07237578,35.6204012 3.92176254,34.7725774 4.96493824,34.7725774 L15.7744194,34.7725774 C16.8175951,34.7725774 17.6669819,35.6204012 17.6669819,36.662313 L17.6669819,44.7576203 C17.6669819,47.8072943 20.1514217,50.2884738 23.2060609,50.2884738 C26.2600432,50.2884738 28.7451399,47.8072943 28.7451399,44.7576203 L28.7451399,12.3777026 C28.7451399,7.2435493 32.9276964,3.0673779 38.068687,3.0673779 C43.2103344,3.0673779 47.3928909,7.2435493 47.3928909,12.3777026 L47.3928909,61.6222974 C47.3928909,64.6719714 49.8773308,67.1524952 52.9319699,67.1524952 C55.9859522,67.1524952 58.4703921,64.6719714 58.4703921,61.6222974 L58.4703921,29.2423797 C58.4703921,24.1082264 62.6529485,19.9313993 67.794596,19.9313993 C72.9355866,19.9313993 77.118143,24.1082264 77.118143,29.2423797 L77.118143,35.1102644 L86.0357187,35.1102644 C87.0788944,35.1102644 87.9276242,35.9580882 87.9276242,37 C87.9276242,38.0419118 87.0788944,38.8897356 86.0357187,38.8897356 L75.2262375,38.8897356 C74.1824049,38.8897356 73.333675,38.0419118 73.333675,37 L73.333675,29.2423797 C73.333675,26.1927057 70.8485783,23.7115262 67.794596,23.7115262 M86.0357187,32.0428865 L80.1905188,32.0428865 L80.1905188,29.2423797 C80.1905188,22.4171688 74.6297617,16.8646771 67.794596,16.8646771 C60.9594303,16.8646771 55.3986732,22.4171688 55.3986732,29.2423797 L55.3986732,61.6222974 C55.3986732,62.980258 54.2917771,64.085773 52.9319699,64.085773 C51.5715059,64.085773 50.4652667,62.980258 50.4652667,61.6222974 L50.4652667,12.3777026 C50.4652667,5.55249167 44.9038527,0 38.068687,0 C31.2335213,0 25.6727642,5.55249167 25.6727642,12.3777026 L25.6727642,44.7576203 C25.6727642,46.1155809 24.565868,47.2210959 23.2060609,47.2210959 C21.8455969,47.2210959 20.7393577,46.1155809 20.7393577,44.7576203 L20.7393577,36.662313 C20.7393577,33.9293436 18.5124272,31.7051995 15.7744194,31.7051995 L4.96493824,31.7051995 C2.22693049,31.7051995 0,33.9293436 0,36.662313 C0,39.3959382 2.22693049,41.6200822 4.96493824,41.6200822 L10.8094812,41.6200822 L10.8094812,44.7576203 C10.8094812,51.5828312 16.3708952,57.1353229 23.2060609,57.1353229 C30.0412266,57.1353229 35.6019837,51.5828312 35.6019837,44.7576203 L35.6019837,12.3777026 C35.6019837,11.019742 36.7088799,9.91422698 38.068687,9.91422698 C39.429151,9.91422698 40.5353902,11.019742 40.5353902,12.3777026 L40.5353902,61.6222974 C40.5353902,68.4475083 46.0968042,74 52.9319699,74 C59.7664787,74 65.3278928,68.4475083 65.3278928,61.6222974 L65.3278928,29.2423797 C65.3278928,27.8837634 66.434132,26.7789041 67.794596,26.7789041 C69.1544031,26.7789041 70.2612992,27.8837634 70.2612992,29.2423797 L70.2612992,37 C70.2612992,39.7336252 72.4882297,41.9571135 75.2262375,41.9571135 L86.0357187,41.9571135 C88.7730695,41.9571135 91,39.7336252 91,37 C91,34.2670306 88.7730695,32.0428865 86.0357187,32.0428865" id="Logo" fill="url(#linearGradient-1)"></path>
                <g id="Nome" transform="translate(116.000000, 3.000000)" fill="#FFFFFF">
                    <path d="M24.2865971,26.4767442 C24.2865971,20.1369094 19.4408818,15.0645148 13.5447947,15.0645148 C7.70672807,15.0645148 2.80299222,20.1369094 2.80299222,26.4767442 C2.80299222,32.816579 7.70672807,37.8310335 13.5447947,37.8310335 C19.4408818,37.8310335 24.2865971,32.816579 24.2865971,26.4767442 M27.0889224,13.7391344 L27.0889224,39.2143539 C27.0889224,39.9636251 26.4466951,40.5976744 25.6877598,40.5976744 C24.9288244,40.5976744 24.2865971,39.9636251 24.2865971,39.2143539 L24.2865971,35.0071108 C21.8343957,38.3498609 17.9230111,40.5976744 13.5447947,40.5976744 C6.01346201,40.5976744 0,34.1998995 0,26.4767442 C0,18.7535889 6.01346201,12.355814 13.5447947,12.355814 C17.9230111,12.355814 21.8343957,14.5456873 24.2865971,17.8890959 L24.2865971,13.7391344 C24.2865971,12.9319232 24.9288244,12.355814 25.6877598,12.355814 C26.4466951,12.355814 27.0889224,12.9319232 27.0889224,13.7391344" id="Fill-4"></path>
                    <path d="M84.6927843,23.8486354 C84.5783502,19.0549017 80.8000629,15.0700199 75.9918686,15.0700199 C71.2405644,15.0700199 67.3484968,19.0549017 67.3484968,23.8486354 L67.3484968,39.2696004 L67.3484968,39.4424545 C67.3484968,39.5005124 67.2909528,39.5579105 67.2909528,39.5579105 L67.2909528,39.6733666 C67.1765187,40.0197346 66.8901065,40.2506466 66.6036943,40.4241605 C66.374826,40.5396165 66.1459578,40.5976744 65.9170896,40.5976744 L65.7451115,40.5976744 L65.6313313,40.5976744 C65.5737873,40.5976744 65.5162433,40.5396165 65.5162433,40.5396165 C65.4024631,40.5396165 65.2873751,40.4241605 65.1729409,40.3667624 C65.1160508,40.3667624 65.0585068,40.3087045 65.0016167,40.2506466 L64.8296386,40.0777925 C64.7720946,40.0197346 64.7720946,39.9623365 64.7152045,39.9623365 C64.7152045,39.9042786 64.7152045,39.9042786 64.6576605,39.8468805 C64.6576605,39.8468805 64.6576605,39.7888226 64.6007704,39.7314244 C64.6007704,39.6733666 64.6007704,39.6153087 64.5432264,39.5579105 L64.5432264,39.3843967 L64.5432264,39.2696004 L64.5432264,23.8486354 C64.5432264,19.0549017 60.708049,15.0700199 55.8998546,15.0700199 C51.0910064,15.0700199 47.255829,19.0549017 47.255829,23.8486354 L47.255829,39.2696004 C47.255829,39.7314244 47.0269608,40.1358504 46.6261144,40.3667624 C46.5692243,40.4241605 46.3972462,40.5396165 46.2828121,40.5396165 C46.2252681,40.5976744 46.168378,40.5976744 46.0539439,40.5976744 L45.8819658,40.5976744 L45.7106416,40.5976744 C45.1953611,40.5396165 44.7369708,40.0777925 44.5656466,39.5579105 L44.5656466,39.2696004 L44.5656466,23.8486354 L44.5656466,23.3868114 L44.5656466,13.683888 C44.5656466,12.933094 45.1953611,12.355814 45.8819658,12.355814 C46.6836584,12.355814 47.255829,12.933094 47.255829,13.683888 L47.255829,16.3987537 C49.3169508,13.9148 52.4079795,12.355814 55.8998546,12.355814 C60.2503125,12.355814 63.9710558,14.78105 65.9170896,18.3621657 C67.9206674,14.78105 71.6983008,12.355814 75.9918686,12.355814 C82.2890141,12.355814 87.3836207,17.4959157 87.3836207,23.8486354 L87.3836207,39.2696004 C87.3836207,39.9623365 86.8107962,40.5976744 86.0097575,40.5976744 C85.2649549,40.5976744 84.6927843,39.9623365 84.6927843,39.2696004 L84.6927843,23.8486354 Z" id="Fill-6"></path>
                    <path d="M126.525364,26.4767442 C126.525364,20.1369094 121.67953,15.0645148 115.783297,15.0645148 C109.945087,15.0645148 105.040564,20.1369094 105.040564,26.4767442 C105.040564,32.816579 109.945087,37.8310335 115.783297,37.8310335 C121.67953,37.8310335 126.525364,32.816579 126.525364,26.4767442 M129.327759,13.7391344 L129.327759,39.2143539 C129.327759,39.9636251 128.685515,40.5976744 127.926561,40.5976744 C127.167607,40.5976744 126.525364,39.9636251 126.525364,39.2143539 L126.525364,35.0071108 C124.073103,38.3498609 120.161622,40.5976744 115.783297,40.5976744 C108.252446,40.5976744 102.238836,34.1998995 102.238836,26.4767442 C102.238836,18.7535889 108.252446,12.355814 115.783297,12.355814 C120.161622,12.355814 124.073103,14.5456873 126.525364,17.8890959 L126.525364,13.7391344 C126.525364,12.9319232 127.167607,12.355814 127.926561,12.355814 C128.685515,12.355814 129.327759,12.9319232 129.327759,13.7391344" id="Fill-8"></path>
                    <path d="M169.345704,26.91075 L169.345704,25.9825646 C169.116557,19.8933772 164.373678,15.0212323 158.601272,15.0212323 C152.714618,15.0212323 147.857492,20.1252579 147.857492,26.446326 C147.857492,32.7104178 152.714618,37.756142 158.601272,37.756142 C164.373678,37.756142 169.116557,32.9422985 169.345704,26.91075 L169.345704,26.91075 Z M169.345704,35.0881888 C166.887763,38.4517841 163.002063,40.5976744 158.601272,40.5976744 C151.057711,40.5976744 145.05681,34.2183049 145.05681,26.446326 C145.05681,18.5590694 151.057711,12.1796998 158.601272,12.1796998 C163.002063,12.1796998 166.887763,14.3832291 169.345704,17.7468244 L169.345704,1.39194677 C169.345704,0.638003206 169.974389,0 170.774117,0 C171.517048,0 172.145733,0.638003206 172.145733,1.39194677 L172.145733,25.8666243 L172.145733,26.446326 L172.145733,39.2057277 C172.145733,39.9596712 171.517048,40.5976744 170.774117,40.5976744 C169.974389,40.5976744 169.345704,39.9596712 169.345704,39.2057277 L169.345704,35.0881888 Z" id="Fill-10"></path>
                    <path d="M190.789713,24.2865927 L211.992634,24.2865927 C211.077353,18.9845364 206.619765,15.1230488 201.476696,15.1230488 C196.218726,15.1230488 191.817935,18.9265977 190.789713,24.2865927 M187.874784,26.5343538 C187.874784,18.6961594 193.932482,12.355814 201.476696,12.355814 C208.676862,12.355814 214.391819,18.1194052 214.963707,25.496723 L214.963707,25.5546618 L214.963707,25.7271613 C214.963707,26.4770734 214.335022,26.9958888 213.592091,26.9958888 L190.618016,26.9958888 C190.90396,33.1624179 195.704289,37.8310979 201.476696,37.8310979 C205.191352,37.8310979 208.620065,35.8717139 210.506119,32.7015412 C210.905657,32.0095679 211.763488,31.8950072 212.334722,32.2406646 C212.963407,32.7015412 213.1919,33.5080753 212.79171,34.2000486 C210.391872,38.0615363 206.220227,40.5976744 201.476696,40.5976744 C193.932482,40.5976744 187.874784,34.2579874 187.874784,26.5343538" id="Fill-12"></path>
                    <path d="M229.818922,13.7363023 C229.818922,12.9307436 230.445311,12.355814 231.186179,12.355814 C231.925746,12.355814 232.552134,12.9307436 232.552134,13.7363023 L232.552134,29.0938241 C232.552134,33.9252047 236.367053,37.7788763 241.093258,37.8366978 C245.876704,37.7788763 249.748212,33.9252047 249.748212,29.0938241 L249.748212,13.7363023 C249.748212,12.9307436 250.43119,12.355814 251.114818,12.355814 C251.912276,12.355814 252.538664,12.9307436 252.538664,13.7363023 L252.538664,29.0938241 C252.538664,35.420679 247.470969,40.5976744 241.093258,40.5976744 C234.830027,40.5976744 229.818922,35.420679 229.818922,29.0938241 L229.818922,13.7363023 Z" id="Fill-14"></path>
                    <path d="M269.445991,34.718727 C269.902533,34.1426178 270.759526,34.0273959 271.387597,34.545565 C273.327898,35.9868256 276.411509,37.8310335 279.951009,37.8310335 C282.120885,37.8310335 284.004445,37.1397024 285.260586,36.1020474 C286.631514,35.1802727 287.373068,33.9115157 287.373068,32.6440754 C287.315674,31.3180367 286.802391,30.396262 285.375373,29.185445 C284.175974,28.2636703 282.177627,27.5716809 279.437074,27.1107935 L279.323591,27.0528534 C276.810656,26.591966 274.584039,26.0158568 272.986144,24.86298 C271.216068,23.8253251 269.959927,21.9811172 269.959927,19.7905854 C269.959927,17.5434304 271.216068,15.5833423 272.986144,14.2573035 C274.641433,13.1050851 276.982186,12.355814 279.836874,12.355814 C283.433768,12.355814 286.003444,14.0268598 288.172668,15.4101803 C288.800738,15.8717261 288.971615,16.7362191 288.571815,17.3702684 C288.172668,18.0043177 287.315674,18.1768213 286.688256,17.773874 C284.632515,16.3905536 282.577427,14.949293 279.836874,14.949293 C277.553514,14.949293 275.726044,15.5833423 274.527297,16.5630571 C273.385291,17.4854902 272.757221,18.6383671 272.757221,19.7905854 C272.757221,20.9434623 273.271156,21.7506735 274.355768,22.6151665 C275.611909,23.4796595 277.496121,24.1709906 280.065144,24.5745962 L280.17928,24.5745962 C282.862439,24.9782019 285.032315,25.7854131 286.973268,26.8803498 C288.800738,28.0905083 290.113621,30.2810401 290.113621,32.6440754 C290.113621,35.0071108 288.800738,36.9092587 286.916526,38.3498609 C284.975573,39.7911215 282.691562,40.5976744 279.951009,40.5976744 C275.44038,40.5403927 271.90088,38.4078011 269.617521,36.5629348 C269.046192,36.0447657 268.98945,35.2948362 269.445991,34.718727" id="Fill-16"></path>
                    <path d="M86.4356721,61.7790698 C86.4356721,60.6592911 86.3313978,59.7022709 86.1228491,58.9080093 C85.9149324,58.1137476 85.6343396,57.4646666 85.2842306,56.9601152 C84.9334897,56.4555637 84.522712,56.0857763 84.0518975,55.851404 C83.5804511,55.6170317 83.0862539,55.4998456 82.5680421,55.4998456 C82.0498302,55.4998456 81.5568969,55.6170317 81.0892423,55.851404 C80.6215877,56.0857763 80.21081,56.4555637 79.8569092,56.9601152 C79.5030084,57.4646666 79.2217837,58.1137476 79.013235,58.9080093 C78.8046863,59.7022709 78.700412,60.6592911 78.700412,61.7790698 C78.700412,62.9053588 78.8046863,63.8643321 79.013235,64.6546875 C79.2217837,65.446345 79.5030084,66.094124 79.8569092,66.5986754 C80.21081,67.1032269 80.6215877,67.4710611 81.0892423,67.7021783 C81.5568969,67.9332954 82.0498302,68.0485284 82.5680421,68.0485284 C83.0862539,68.0485284 83.5804511,67.9332954 84.0518975,67.7021783 C84.522712,67.4710611 84.9334897,67.1032269 85.2842306,66.5986754 C85.6343396,66.094124 85.9149324,65.446345 86.1228491,64.6546875 C86.3313978,63.8643321 86.4356721,62.9053588 86.4356721,61.7790698 M87.3836207,61.7790698 C87.3836207,62.9899932 87.2572275,64.0381582 87.0044413,64.9235646 C86.751655,65.808971 86.4072337,66.5413844 85.9718093,67.1208048 C85.535121,67.7002252 85.0251247,68.1318608 84.4405564,68.4144096 C83.8559882,68.6976094 83.232238,68.8395349 82.5680421,68.8395349 C81.9044781,68.8395349 81.2819919,68.6976094 80.7005834,68.4144096 C80.119175,68.1318608 79.6104426,67.7002252 79.1743863,67.1208048 C78.7383299,66.5413844 78.3951726,65.808971 78.1461781,64.9235646 C77.8959197,64.0381582 77.7714224,62.9899932 77.7714224,61.7790698 C77.7714224,60.5681463 77.8959197,59.5199813 78.1461781,58.6345749 C78.3951726,57.7491685 78.7383299,57.0167551 79.1743863,56.4373347 C79.6104426,55.8579144 80.119175,55.4269298 80.7005834,55.1437299 C81.2819919,54.8605301 81.9044781,54.7186047 82.5680421,54.7186047 C83.232238,54.7186047 83.8559882,54.8605301 84.4405564,55.1437299 C85.0251247,55.4269298 85.535121,55.8579144 85.9718093,56.4373347 C86.4072337,57.0167551 86.751655,57.7491685 87.0044413,58.6345749 C87.2572275,59.5199813 87.3836207,60.5681463 87.3836207,61.7790698" id="Fill-18"></path>
                    <path d="M102.238836,68.8395349 L101.253143,68.8395349 C101.162706,68.8395349 101.090487,68.8115924 101.038438,68.7550422 C100.986388,68.6984919 100.944748,68.6432722 100.911566,68.5900485 L96.5595515,62.0734637 C96.532876,62.1732583 96.4873324,62.2730528 96.4229207,62.3728474 L92.1476796,68.5900485 C92.102136,68.6499252 92.0552912,68.7064755 92.0058439,68.7596992 C91.9576978,68.812923 91.8945874,68.8395349 91.8158621,68.8395349 L90.8789655,68.8395349 L95.8763977,61.5944498 L91.1040809,54.7186047 L92.0891236,54.7186047 C92.1802107,54.7186047 92.2472249,54.7385636 92.2895153,54.7784814 C92.3311552,54.8183992 92.3688913,54.86497 92.402073,54.9181938 L96.5979382,61.095477 C96.6376262,60.9956825 96.6864229,60.8958879 96.7449789,60.7960934 L100.794454,54.9281732 C100.826985,54.8682965 100.867974,54.8183992 100.916771,54.7784814 C100.965568,54.7385636 101.022172,54.7186047 101.087234,54.7186047 L102.043649,54.7186047 L97.2713326,61.5345731 L102.238836,68.8395349 Z" id="Fill-20"></path>
                    <path d="M117.900266,61.6942444 C118.516744,61.6942444 119.070195,61.6197311 119.559307,61.4700393 C120.047763,61.3203474 120.46203,61.1054565 120.800141,60.8260317 C121.138252,60.546607 121.395611,60.2112972 121.573529,59.8181067 C121.750135,59.4255814 121.839422,58.9831588 121.839422,58.490839 C121.839422,57.4862404 121.515755,56.7411077 120.869077,56.2554409 C120.222398,55.769774 119.278971,55.5269406 118.038136,55.5269406 L115.486876,55.5269406 L115.486876,61.6942444 L117.900266,61.6942444 Z M124.084741,68.8395349 L123.218127,68.8395349 C123.106518,68.8395349 123.012634,68.8215719 122.937134,68.7849805 C122.861633,68.7483892 122.790728,68.6798636 122.725732,68.580069 L118.254133,62.8518613 C118.201611,62.7786786 118.147776,62.7154754 118.091971,62.6622516 C118.036167,62.6090279 117.973797,62.5671141 117.904861,62.5378411 C117.835926,62.5079027 117.75386,62.4859479 117.658664,62.472642 C117.563468,62.459336 117.447263,62.452683 117.309392,62.452683 L115.486876,62.452683 L115.486876,68.8395349 L114.472543,68.8395349 L114.472543,54.7186047 L118.038136,54.7186047 C119.639403,54.7186047 120.839533,55.0332902 121.637212,55.6619959 C122.434891,56.2907016 122.834059,57.2134686 122.834059,58.4309623 C122.834059,58.9698529 122.741489,59.462838 122.558318,59.9079218 C122.373834,60.3536708 122.109911,60.7448655 121.765235,61.0808405 C121.420559,61.4168155 121.003665,61.6909179 120.514553,61.903813 C120.025441,62.116708 119.475272,62.2597469 118.865359,62.3329296 C119.022925,62.4327241 119.164078,62.5664488 119.288162,62.7321078 L124.084741,68.8395349 Z" id="Fill-22"></path>
                    <polygon id="Fill-24" points="137.192284 67.9912811 137.172409 68.8395349 128.453922 68.8395349 128.453922 54.7186047 137.172409 54.7186047 137.172409 55.5668584 129.512806 55.5668584 129.512806 61.2751072 135.887356 61.2751072 135.887356 62.1034021 129.512806 62.1034021 129.512806 67.9912811"></polygon>
                    <polygon id="Fill-26" points="149.425991 67.9713222 149.425991 68.8395349 141.561466 68.8395349 141.561466 54.7186047 142.6093 54.7186047 142.6093 67.9713222"></polygon>
                    <path d="M161.239785,63.7100945 L158.441288,56.5747835 C158.344118,56.3419295 158.250187,56.0625047 158.159495,55.7365092 C158.120627,55.8961805 158.07852,56.0472029 158.033174,56.1902418 C157.98718,56.3339459 157.939243,56.4650095 157.887419,56.5847629 L155.088922,63.7100945 L161.239785,63.7100945 Z M164.281207,68.8395349 L163.513564,68.8395349 C163.422872,68.8395349 163.348375,68.8142536 163.290073,68.7650216 C163.231771,68.714459 163.186425,68.6499252 163.154035,68.5700896 L161.541012,64.4685332 L154.787695,64.4685332 L153.174672,68.5700896 C153.14876,68.6432722 153.102767,68.7064755 153.038634,68.7596992 C152.973854,68.812923 152.896118,68.8395349 152.804778,68.8395349 L152.0475,68.8395349 L157.673645,54.7186047 L158.655062,54.7186047 L164.281207,68.8395349 Z" id="Fill-28"></path>
                    <path d="M171.339423,63.021512 L171.339423,68.8395349 L170.331851,68.8395349 L170.331851,63.021512 L165.155043,54.7186047 L166.044735,54.7186047 C166.136931,54.7186047 166.212664,54.7405595 166.271932,54.7838038 C166.331201,54.8270481 166.380592,54.8882554 166.419446,54.9680911 L170.420096,61.4547374 C170.505707,61.6077558 170.584732,61.756117 170.65783,61.8991559 C170.729612,62.0421948 170.792173,62.1832377 170.845515,62.3229501 C170.89754,62.1832377 170.957467,62.0421948 171.023322,61.8991559 C171.088518,61.756117 171.16425,61.6077558 171.249861,61.4547374 L175.250511,54.9680911 C175.283438,54.8949084 175.331512,54.8350316 175.394073,54.7884608 C175.456635,54.74189 175.533684,54.7186047 175.626539,54.7186047 L176.514914,54.7186047 L171.339423,63.021512 Z" id="Fill-30"></path>
                    <polygon id="Fill-32" points="189.622457 67.9912811 189.602581 68.8395349 180.884095 68.8395349 180.884095 54.7186047 189.602581 54.7186047 189.602581 55.5668584 181.942979 55.5668584 181.942979 61.2751072 188.317528 61.2751072 188.317528 62.1034021 181.942979 62.1034021 181.942979 67.9912811"></polygon>
                    <path d="M197.419361,61.6942444 C198.035839,61.6942444 198.58929,61.6197311 199.078402,61.4700393 C199.566857,61.3203474 199.981125,61.1054565 200.319236,60.8260317 C200.657347,60.546607 200.914705,60.2112972 201.092624,59.8181067 C201.269229,59.4255814 201.358517,58.9831588 201.358517,58.490839 C201.358517,57.4862404 201.03485,56.7411077 200.388171,56.2554409 C199.741493,55.769774 198.798065,55.5269406 197.557231,55.5269406 L195.005971,55.5269406 L195.005971,61.6942444 L197.419361,61.6942444 Z M203.603836,68.8395349 L202.737222,68.8395349 C202.625612,68.8395349 202.531729,68.8215719 202.456229,68.7849805 C202.380728,68.7483892 202.309823,68.6798636 202.244827,68.580069 L197.773228,62.8518613 C197.720706,62.7786786 197.666871,62.7154754 197.611066,62.6622516 C197.555261,62.6090279 197.492891,62.5671141 197.423956,62.5378411 C197.355021,62.5079027 197.272955,62.4859479 197.177759,62.472642 C197.082563,62.459336 196.966358,62.452683 196.828487,62.452683 L195.005971,62.452683 L195.005971,68.8395349 L193.991638,68.8395349 L193.991638,54.7186047 L197.557231,54.7186047 C199.158498,54.7186047 200.358628,55.0332902 201.156307,55.6619959 C201.953986,56.2907016 202.353154,57.2134686 202.353154,58.4309623 C202.353154,58.9698529 202.260584,59.462838 202.077413,59.9079218 C201.892929,60.3536708 201.629006,60.7448655 201.28433,61.0808405 C200.939653,61.4168155 200.522759,61.6909179 200.033647,61.903813 C199.544535,62.116708 198.994367,62.2597469 198.384454,62.3329296 C198.54202,62.4327241 198.683173,62.5664488 198.807257,62.7321078 L203.603836,68.8395349 Z" id="Fill-34"></path>
                </g>
            </g>
        </g>
    </g>
</svg>