<?xml version="1.0" encoding="UTF-8"?>
<svg width="617px" height="180px" viewBox="0 0 617 180" version="1.1" xmlns="http://www.w3.org/2000/svg" xmlns:xlink="http://www.w3.org/1999/xlink">
    <!-- Generator: Sketch 46.2 (44496) - http://www.bohemiancoding.com/sketch -->
    <title>Totle Logo White BG</title>
    <desc>Created with Sketch.</desc>
    <defs>
        <linearGradient x1="50%" y1="0%" x2="50%" y2="100%" id="linearGradient-1">
            <stop stop-color="#00B8FF" offset="0%"></stop>
            <stop stop-color="#0098EB" offset="100%"></stop>
        </linearGradient>
    </defs>
    <g id="Page-1" stroke="none" stroke-width="1" fill="none" fill-rule="evenodd">
        <g id="Back-v2-Copy" transform="translate(-252.000000, -248.000000)">
            <g id="Totle-Logo-White-BG" transform="translate(252.000000, 248.000000)">
                <g id="Totle-Logo" transform="translate(0.106007, 0.000000)">
                    <g id="Totle-logo-horizontal-vers-Copy">
                        <g id="logo-1">
                            <rect id="Rectangle" fill="url(#linearGradient-1)" x="0" y="0" width="180" height="180" rx="4"></rect>
                            <path d="M49.3018282,84.3481854 L49.3018282,72.7077504 L72.5457272,72.7077504 L72.5457272,139.428919 L69.3223122,136.357259 L53.230251,121.022794 L27,96.0896847 L27,45 L153,45 L153,96.0896845 L152.429084,96.6323681 L126.734821,121.056002 L107.419723,139.464234 L107.419723,72.3012433 L130.691694,72.3012433 L130.691694,83.9416783 L128.795373,83.9416783 L120.115289,83.9416783 L120.115289,111.656961 L141.185442,91.0656964 L141.185442,56.6463985 L103.306879,56.6424881 L96.2592501,56.6424881 L96.2592501,150.006191 L90.0140648,156 L83.5593661,149.845491 L83.5593661,56.6424881 L76.6911625,56.6424881 L38.8123988,56.6463985 L38.8123988,91.0655797 L59.8480026,111.618637 L59.8480026,84.3481854 L49.3018282,84.3481854 Z" id="Combined-Shape" fill="#FFFFFF" fill-rule="nonzero"></path>
                        </g>
                    </g>
                </g>
                <path d="M275.83983,64.616 L252.40383,64.616 L252.40383,52.736 L312.88383,52.736 L312.88383,64.616 L289.44783,64.616 L289.44783,129.2 L275.83983,129.2 L275.83983,64.616 Z M324.82783,90.752 C324.82783,84.6319694 325.85382,79.1060247 327.90583,74.174 C329.957841,69.2419753 332.801812,65.0480173 336.43783,61.592 C340.073849,58.1359827 344.393805,55.4720094 349.39783,53.6 C354.401855,51.7279906 359.855801,50.792 365.75983,50.792 C371.73586,50.792 377.243805,51.7279906 382.28383,53.6 C387.323856,55.4720094 391.679812,58.1359827 395.35183,61.592 C399.023849,65.0480173 401.88582,69.2419753 403.93783,74.174 C405.989841,79.1060247 407.01583,84.6319694 407.01583,90.752 C407.01583,96.7280299 405.989841,102.181975 403.93783,107.114 C401.88582,112.046025 399.023849,116.293982 395.35183,119.858 C391.679812,123.422018 387.323856,126.19399 382.28383,128.174 C377.243805,130.15401 371.73586,131.144 365.75983,131.144 C359.855801,131.144 354.401855,130.15401 349.39783,128.174 C344.393805,126.19399 340.073849,123.422018 336.43783,119.858 C332.801812,116.293982 329.957841,112.046025 327.90583,107.114 C325.85382,102.181975 324.82783,96.7280299 324.82783,90.752 Z M339.62383,90.752 C339.62383,94.8560205 340.253824,98.6179829 341.51383,102.038 C342.773837,105.458017 344.573819,108.427987 346.91383,110.948 C349.253842,113.468013 352.025814,115.429993 355.22983,116.834 C358.433846,118.238007 361.979811,118.94 365.86783,118.94 C369.75585,118.94 373.319814,118.238007 376.55983,116.834 C379.799847,115.429993 382.589819,113.468013 384.92983,110.948 C387.269842,108.427987 389.069824,105.458017 390.32983,102.038 C391.589837,98.6179829 392.21983,94.8560205 392.21983,90.752 C392.21983,86.7919802 391.589837,83.1200169 390.32983,79.736 C389.069824,76.3519831 387.287842,73.4000126 384.98383,70.88 C382.679819,68.3599874 379.907847,66.3800072 376.66783,64.94 C373.427814,63.4999928 369.82785,62.78 365.86783,62.78 C361.907811,62.78 358.325846,63.4999928 355.12183,64.94 C351.917814,66.3800072 349.163842,68.3599874 346.85983,70.88 C344.555819,73.4000126 342.773837,76.3519831 341.51383,79.736 C340.253824,83.1200169 339.62383,86.7919802 339.62383,90.752 Z M442.39583,64.616 L418.95983,64.616 L418.95983,52.736 L479.43983,52.736 L479.43983,64.616 L456.00383,64.616 L456.00383,129.2 L442.39583,129.2 L442.39583,64.616 Z M498.29583,52.736 L511.90383,52.736 L511.90383,117.104 L544.41183,117.104 L544.41183,129.2 L498.29583,129.2 L498.29583,52.736 Z M563.48383,52.736 L614.13583,52.736 L614.13583,64.616 L577.09183,64.616 L577.09183,84.056 L612.19183,84.056 L612.19183,95.504 L577.09183,95.504 L577.09183,117.104 L616.07983,117.104 L616.07983,129.2 L563.48383,129.2 L563.48383,52.736 Z" id="TOTLE" fill="#1B465C"></path>
            </g>
        </g>
    </g>
</svg>