<svg xmlns="http://www.w3.org/2000/svg" width="122" height="86" viewBox="0 0 122 86">
    <defs>
        <linearGradient id="a" x1="-49.097%" x2="123.035%" y1="22.526%" y2="100%">
            <stop offset="0%" stop-color="#FF6C72"/>
            <stop offset="100%" stop-color="#6737A0"/>
        </linearGradient>
        <linearGradient id="b" x1="0%" x2="92.417%" y1="0%" y2="89.079%">
            <stop offset="0%" stop-color="#FF6C72"/>
            <stop offset="100%" stop-color="#6737A0"/>
        </linearGradient>
    </defs>
    <g fill="none" fill-rule="nonzero">
        <path fill="url(#a)" d="M66.456 57.78H59.16c-.862 0-1.563-.747-1.563-1.663v-.575c0-.917.702-1.663 1.563-1.663h11.374V50.29H64.91v-5.5h-3.375v5.501H59.16c-2.722 0-4.938 2.355-4.938 5.251v.576c0 2.894 2.216 5.25 4.938 5.25h7.296c.861 0 1.562.745 1.562 1.661v.575c0 .919-.702 1.664-1.562 1.664H55.079v3.587h6.456v5.498h3.375v-5.498h1.546c2.723 0 4.937-2.356 4.937-5.25v-.576c0-2.896-2.214-5.25-4.937-5.25z"/>
        <path fill="url(#b)" d="M120.345 59.693c-.787-.769-1.978-1.93-4.163-1.93-2.186 0-3.375 1.161-4.162 1.93-.695.678-.97.913-1.658.913-.687 0-.962-.235-1.655-.913-.786-.769-1.975-1.93-4.158-1.93-2.184 0-3.372 1.163-4.159 1.932-.692.676-.966.91-1.652.91-.686 0-.96-.234-1.652-.91-.786-.77-1.975-1.932-4.158-1.932-2.185 0-3.373 1.163-4.16 1.932a7.477 7.477 0 0 1-.626.558c-.383-13.475-11.494-24.329-25.133-24.329-13.136 0-23.936 10.066-25.057 22.848-.736-.539-1.72-1.01-3.106-1.01-2.184 0-3.371 1.164-4.157 1.933-.692.676-.966.91-1.65.91-.687 0-.96-.234-1.651-.91-.788-.77-1.975-1.932-4.159-1.932-2.184 0-3.371 1.163-4.157 1.932-.69.676-.965.91-1.65.91-.687 0-.96-.234-1.651-.91-.786-.77-1.974-1.932-4.157-1.932-2.184 0-3.371 1.163-4.157 1.932-.69.676-.965.91-1.65.91-.685 0-.958-.234-1.65-.91-.786-.77-1.973-1.932-4.157-1.932v3.554c.686 0 .959.234 1.65.911.787.769 1.974 1.932 4.158 1.932 2.183 0 3.37-1.163 4.155-1.932.692-.677.965-.911 1.65-.911.687 0 .96.234 1.651.911.786.77 1.974 1.932 4.157 1.932 2.184 0 3.372-1.163 4.158-1.932.691-.677.964-.911 1.65-.911.686 0 .959.234 1.65.911.787.769 1.974 1.932 4.158 1.932 2.183 0 3.37-1.163 4.157-1.932.691-.678.964-.911 1.65-.911.685 0 .96.234 1.65.911.395.385.867.823 1.47 1.19C39.209 76.074 49.962 86 63.008 86c12.81 0 23.392-9.574 24.95-21.905 1.656-.25 2.637-1.202 3.313-1.866.693-.678.968-.912 1.655-.912.685 0 .96.234 1.65.911.788.77 1.976 1.932 4.16 1.932 2.183 0 3.37-1.163 4.158-1.932.691-.678.966-.911 1.652-.911.686 0 .96.234 1.652.911.787.769 1.975 1.932 4.16 1.932s3.374-1.162 4.161-1.93c.693-.679.969-.913 1.66-.913.69 0 .965.234 1.658.912.788.77 1.978 1.93 4.163 1.93v-3.553c-.686 0-.962-.235-1.655-.913zM63.01 82.445c-11.908 0-21.595-9.637-21.595-21.484 0-11.846 9.687-21.483 21.595-21.483s21.596 9.637 21.596 21.483c0 11.847-9.688 21.484-21.596 21.484zM9.055 30.818v21.255h-3.56V27.215h24.18v25.038h-3.559V30.818H9.056zm29.676-11.02v28.1h-3.56V16.33h24.18v16.305h-3.56V19.798h-17.06zm29.676-8.62v22.407h-3.56V7.62h24.18v35.924h-3.56V11.177h-17.06zm28.576-7.62V54.43h-3.56V0h24.18v54.43h-3.56V3.558h-17.06z"/>
    </g>
</svg>
