<svg xmlns="http://www.w3.org/2000/svg" width="98" height="95" viewBox="0 0 98 95">
    <defs>
        <linearGradient id="a" x1="0%" x2="92.417%" y1="0%" y2="89.079%">
            <stop offset="0%" stop-color="#FF6C72"/>
            <stop offset="100%" stop-color="#6737A0"/>
        </linearGradient>
    </defs>
    <path fill="url(#a)" fill-rule="evenodd" stroke="#FFF" stroke-width=".9" d="M725.76 851.45a5.737 5.737 0 0 0-5.76-5.763c-3.2 0-5.76 2.56-5.76 5.762a5.737 5.737 0 0 0 5.76 5.763c3.2 0 5.76-2.561 5.76-5.763zm4.8 0c0 5.762-4.8 10.564-10.56 10.564-5.76 0-10.56-4.802-10.56-10.565 0-5.762 4.8-10.564 10.56-10.564 5.76 0 10.56 4.802 10.56 10.564zm5.92-.16c0-9.125-7.358-16.488-16.48-16.488-9.12 0-16.478 7.363-16.478 16.487v53.943h32.8l.158-53.943zm-7.038 58.744H710.56v8.004h19.04v-8.004h-.158zm11.838-58.745v56.504c0 1.281-1.12 2.401-2.4 2.401h-4.48V920.6c0 1.28-1.12 2.401-2.4 2.401h-23.84c-1.28 0-2.4-1.12-2.4-2.401v-10.565h-4.48c-1.28 0-2.4-1.12-2.4-2.4v-56.345C698.722 839.444 708.322 830 720 830c11.68 0 21.28 9.444 21.28 21.29zm25.442 35.215l-22.4-12.805v5.602l18.878 10.725v9.124h-18.72v4.802h21.12c1.28 0 2.4-1.12 2.4-2.401v-12.966c0-.8-.478-1.6-1.278-2.08zm-93.442 0l22.4-12.805v5.602l-18.88 10.725v9.124h18.722v4.802H674.4c-1.278 0-2.4-1.12-2.4-2.401v-12.966c0-.8.48-1.6 1.28-2.08z" transform="translate(-671 -829)"/>
</svg>
