<svg xmlns="http://www.w3.org/2000/svg" width="32" height="32" viewBox="0 0 32 32">
    <path fill="#76729F" fill-rule="nonzero" d="M16.004 31.996c-8.832 0-15.992-7.16-15.992-15.992S7.172.012 16.004.012s15.992 7.16 15.992 15.992-7.16 15.992-15.992 15.992zm10.665-15.992a2.34 2.34 0 0 0-2.42-2.25 2.343 2.343 0 0 0-1.531.648 11.37 11.37 0 0 0-6.158-1.968l1.038-4.989 3.423.72a1.599 1.599 0 1 0 .21-.978l-3.92-.783a.495.495 0 0 0-.591.378v.008l-1.181 5.549c-2.226.036-4.393.72-6.237 1.968a2.332 2.332 0 0 0-3.3.103 2.332 2.332 0 0 0 .732 3.72c-.016.235-.016.47 0 .704 0 3.582 4.174 6.496 9.322 6.496 5.147 0 9.321-2.91 9.321-6.496.016-.234.016-.469 0-.703a2.334 2.334 0 0 0 1.292-2.127z"/>
</svg>
