<svg xmlns="http://www.w3.org/2000/svg" width="30" height="25" viewBox="0 0 30 25">
    <path fill="#76729F" fill-rule="evenodd" d="M29.173.463a12.137 12.137 0 0 1-3.912 1.53A6.068 6.068 0 0 0 20.77 0c-3.396 0-6.152 2.826-6.152 6.311 0 .495.053.976.158 1.438-5.115-.264-9.65-2.774-12.687-6.596a6.423 6.423 0 0 0-.833 3.176 6.351 6.351 0 0 0 2.739 5.253 6.043 6.043 0 0 1-2.79-.788v.078c0 3.059 2.122 5.61 4.94 6.188a5.897 5.897 0 0 1-1.622.222c-.397 0-.784-.037-1.159-.112.784 2.507 3.055 4.332 5.75 4.38a12.15 12.15 0 0 1-7.645 2.704c-.496 0-.987-.029-1.468-.086A17.133 17.133 0 0 0 9.435 25c11.322 0 17.512-9.616 17.512-17.956 0-.275-.005-.55-.016-.819 1.203-.89 2.247-2 3.069-3.266-1.102.502-2.29.842-3.534.993a6.3 6.3 0 0 0 2.707-3.49"/>
</svg>
